<svg id="border-eleven" data-name="Layer 1" xmlns="http://www.w3.org/2000/svg" width="300" height="300" viewBox="0 0 300 300">
  <g>
    <path d="M259.93.91H41.08a3.9,3.9,0,0,0-3.9,3.89V295a3.9,3.9,0,0,0,3.9,3.89H259.93a3.9,3.9,0,0,0,3.9-3.89V4.8A3.9,3.9,0,0,0,259.93.91ZM213.44,35h16.31v5.07H219.24v5.18h9v4.82h-9v6.27h10.91v5.07H213.44Zm-31.59,0h5.58l7.84,11.16L203.12,35h5.5V61.45h-5.8V50.87c0-2.19,0-4.67.08-6.56l-.08,0c-1.24,1.86-2.55,3.79-3.86,5.65l-3.83,5.44-3.83-5.44c-1.32-1.86-2.63-3.79-3.87-5.65l-.07,0c0,1.89.07,4.37.07,6.56V61.45h-5.58Zm-37.4,0h5.47l7.92,10.65c1.72,2.3,3.32,4.53,5,6.82l.07,0c0-2.52-.07-5.07-.07-7.63V35h5.58V61.45h-5.47L155,50.8c-1.72-2.3-3.32-4.52-5-6.82L150,44c0,2.52.07,5.07.07,7.63v9.81h-5.58Zm-18.86,0h5.62l10.72,26.41h-6.2l-2.11-5.54H123l-2.15,5.54h-5.94Zm-20-.4a17,17,0,0,1,7.33,1.64v5.87a13.42,13.42,0,0,0-7.29-2.3c-5.11,0-8.61,3.58-8.61,8.36s3.39,8.43,8.83,8.43a13.26,13.26,0,0,0,7.48-2.45V60.1a16.9,16.9,0,0,1-7.74,1.75c-8.5,0-14.37-5.87-14.37-13.57S97.06,34.64,105.56,34.64Zm-26,0a18.19,18.19,0,0,1,8.06,1.9v5.72a16.75,16.75,0,0,0-8.1-2.55c-2,0-3.39.73-3.39,2.48,0,2.33,2.45,2.52,5.62,3.57,4,1.32,7.19,3.18,7.19,7.85,0,5.14-3.91,8.24-9.6,8.24A19.38,19.38,0,0,1,71,59.92V54.05a16.71,16.71,0,0,0,8.42,2.73c2.12,0,3.69-.84,3.69-2.81,0-2.44-2.48-2.66-5.87-3.75-3.65-1.21-6.94-3-6.94-7.59C70.28,37.7,74,34.64,79.55,34.64Zm-9.28,39H231.43v5.2H70.27ZM232,263.81a3.85,3.85,0,0,1-3.85,3.85H73.81A3.85,3.85,0,0,1,70,263.81V107.9A3.85,3.85,0,0,1,73.81,104H228.17A3.85,3.85,0,0,1,232,107.9Z"/>
    <path d="M130.77,48.39c-.77-2.08-1.71-4.7-2.41-6.71h-.07c-.69,2-1.64,4.63-2.48,6.86l-1.06,2.81h7.12Z"/>
  </g>
</svg>
