<svg id="border-twenty" data-name="Layer 1" xmlns="http://www.w3.org/2000/svg" width="300" height="300" viewBox="0 0 300 300">
  <g>
    <path d="M55.59,245.23H49.28a5.48,5.48,0,0,0-5.47,5.47v34a5.48,5.48,0,0,0,5.47,5.47h6.31Z"/>
    <g>
      <path d="M233.86,264.85a4.66,4.66,0,0,0-4.67,4.42h9.23A4.65,4.65,0,0,0,233.86,264.85Z"/>
      <path d="M172.05,272.36c0,2,1.77,2.81,3.38,2.81a5.39,5.39,0,0,0,4.24-2.51v-2.11a7.38,7.38,0,0,0-4-1C174.07,269.52,172.05,270.39,172.05,272.36Z"/>
      <path d="M251.65,245.23H125v44.91H251.65a5.49,5.49,0,0,0,5.47-5.47v-34A5.49,5.49,0,0,0,251.65,245.23ZM148.92,276.56a6.81,6.81,0,0,1-5.92-3.9l1.28-.77a5.25,5.25,0,0,0,4.64,3.28c2.38,0,4.29-1.42,4.29-3.71s-2.08-3.34-4.32-4.32c-2.81-1.23-5.13-2.7-5.13-5.6,0-2.16,1.75-4.75,5.33-4.75a6.53,6.53,0,0,1,5.19,2.76l-1.1.85a5,5,0,0,0-4.07-2.22c-2.4,0-3.93,1.45-3.93,3.36,0,2.35,2.16,3.39,4.89,4.59,2.92,1.28,4.56,2.76,4.56,5.33C154.63,274.54,152.12,276.56,148.92,276.56Zm14.64,0a6.56,6.56,0,1,1,5-10.76l-1,.9a5.08,5.08,0,0,0-4-1.85,5.16,5.16,0,0,0,0,10.32,5.11,5.11,0,0,0,4.12-2.08l1,.93A6.43,6.43,0,0,1,163.56,276.56Zm17.53-.32H179.8v-2.16a6,6,0,0,1-4.69,2.48,4.33,4.33,0,0,1-4.54-4.2c0-2.73,2.52-4.21,5-4.21a7.51,7.51,0,0,1,4.15,1.18v-.93c0-3-2.3-3.55-3.66-3.55a8.42,8.42,0,0,0-4.07,1.14l-.63-1.23a9.57,9.57,0,0,1,4.67-1.31c3.47,0,5.11,2.08,5.11,4.62Zm14.14,0h-1.42v-7.73c0-2.57-1.5-3.66-3.52-3.66-2.76,0-3.85,2.78-3.85,2.78v8.61H185V263.78h1.28v2.27a4.81,4.81,0,0,1,4.26-2.6,4.48,4.48,0,0,1,4.67,4.84Zm29.11,0h-1.42V259.93l-7.24,11.53L208.42,260v16.28H207V257.12h1.34l7.32,11.74L223,257.12h1.34Zm15.53-5.66H229.14a4.91,4.91,0,0,0,5,4.59,5.56,5.56,0,0,0,4.26-2.13l1,1a7,7,0,0,1-5.22,2.54,6.39,6.39,0,0,1-6.39-6.55c0-3.53,2.43-6.56,6.14-6.56,3.31,0,6,2.74,6,6.56A4,4,0,0,1,239.87,270.58Z"/>
    </g>
    <g>
      <path d="M113.42,235.58H67A8.45,8.45,0,0,0,58.57,244v46.4A8.45,8.45,0,0,0,67,298.88h46.4a8.45,8.45,0,0,0,8.45-8.45V244A8.45,8.45,0,0,0,113.42,235.58Zm-10.78,27.31V285a4,4,0,0,1-3.93,3.93h-17A4,4,0,0,1,77.8,285V250.42a4,4,0,0,1,3.94-3.93h17a4,4,0,0,1,3.93,3.93Z"/>
      <path d="M90.18,282.07a2.57,2.57,0,0,0-2.59,2.59,2.59,2.59,0,1,0,2.59-2.59Z"/>
      <path d="M86.91,252.44h6.53a1.83,1.83,0,0,0,1.82-1.83,1.89,1.89,0,0,0-1.82-1.82H87a1.85,1.85,0,0,0-1.92,1.82A1.83,1.83,0,0,0,86.91,252.44Z"/>
      <polygon points="80.58 280.44 99.67 280.44 99.67 255.12 80.58 254.93 80.58 280.44"/>
    </g>
  </g>
</svg>
