<svg id="border-seven" data-name="Layer 1" xmlns="http://www.w3.org/2000/svg" width="300" height="300" viewBox="0 0 300 300">
  <g>
    <g>
      <path d="M71.6,252.26h5.84a1.63,1.63,0,0,0,1.63-1.63A1.69,1.69,0,0,0,77.44,249H71.69A1.65,1.65,0,0,0,70,250.63,1.62,1.62,0,0,0,71.6,252.26Z"/>
      <path d="M74.52,278.78a2.31,2.31,0,0,0-2.32,2.31,2.32,2.32,0,1,0,2.32-2.31Z"/>
      <polygon points="65.94 277.32 83.01 277.32 83.01 254.66 65.94 254.49 65.94 277.32"/>
    </g>
    <g>
      <path d="M148.33,273.82c0,2.19,1.88,3.15,3.94,3.15a8,8,0,0,0,5.1-2v-3.8a15.49,15.49,0,0,0-4.18-.62C150.8,270.57,148.33,271.32,148.33,273.82Z"/>
      <path d="M230.73,263c-2.8,0-5.65,2-6.19,5.86h11.74C236.18,264.34,233,263,230.73,263Z"/>
      <path d="M258,1.51H42.1A11.9,11.9,0,0,0,30.26,13.26V287.15A11.78,11.78,0,0,0,42,298.91H258a11.77,11.77,0,0,0,11.75-11.76V13.26A11.77,11.77,0,0,0,258,1.51ZM85.67,261.61v19.74a3.54,3.54,0,0,1-3.51,3.52H67a3.53,3.53,0,0,1-3.52-3.52V250.46A3.54,3.54,0,0,1,67,246.94H82.16a3.59,3.59,0,0,1,3.51,3.52Zm31.92,17.18a13.71,13.71,0,0,1-7.33-2.09v-2.36a12.2,12.2,0,0,0,7.33,2.5c3.32,0,5.75-1.61,5.75-4.83,0-3.66-3.18-4.45-6.4-5.34-3.56-1-7-2.3-7-6.78,0-4.25,3.08-6.64,7.56-6.64a13,13,0,0,1,7,1.95v2.26a12.39,12.39,0,0,0-7-2.26c-3.22,0-5.45,1.54-5.45,4.55,0,3.53,3.12,4.25,6.2,5.1,3.53,1,7.26,2.3,7.26,7.06C125.43,276.25,122.25,278.79,117.59,278.79Zm25-1.27a10.18,10.18,0,0,1-5,1.27,8.51,8.51,0,0,1-8.9-8.73,8.71,8.71,0,0,1,9.07-8.87,10.1,10.1,0,0,1,4.59,1.09v2.13a8.81,8.81,0,0,0-4.66-1.37,6.75,6.75,0,0,0-7,7,6.66,6.66,0,0,0,7,6.88,8,8,0,0,0,4.93-1.61Zm19.62.89a3.67,3.67,0,0,1-1.47.28,3,3,0,0,1-3-2h-.07a8.84,8.84,0,0,1-5.62,2.09,6.59,6.59,0,0,1-4-1.17,4.36,4.36,0,0,1-1.74-3.63,4.45,4.45,0,0,1,2.12-3.9A8.69,8.69,0,0,1,153,269a16.32,16.32,0,0,1,4.35.62v-1.95a4.26,4.26,0,0,0-1.23-3.53,5.13,5.13,0,0,0-3.46-1.06,8.87,8.87,0,0,0-5.17,1.64v-2a10.31,10.31,0,0,1,5.38-1.51,7.29,7.29,0,0,1,4.79,1.48,5.61,5.61,0,0,1,1.71,4.52v7.29c0,1.44.34,2.5,1.71,2.5a2.3,2.3,0,0,0,1.1-.27Zm17.8,0h-2v-10.1c0-2-.31-3.22-1.06-4a4.15,4.15,0,0,0-3.15-1.2,8.71,8.71,0,0,0-6.13,3v12.32h-2V261.57h2v2.36l.07,0a9.62,9.62,0,0,1,6.47-2.77,5.68,5.68,0,0,1,4.31,1.71c1,1.1,1.51,2.53,1.51,5Zm37.66,0h-2.09V263.52c0-2.16,0-4.35,0-6.34l-.06,0c-1.17,1.71-2.47,3.59-3.7,5.37L206,271l-5.85-8.43c-1.23-1.78-2.54-3.66-3.7-5.37l-.07,0c0,2,0,4.18,0,6.34v14.89h-2V253.62h2L206,267.45l9.62-13.83h2Zm20.54-7.87H224.47a6.74,6.74,0,0,0,7.15,6.43,9.37,9.37,0,0,0,5.65-2v2.19a11.36,11.36,0,0,1-5.78,1.58c-5.17,0-9-3.56-9-8.8s3.77-8.8,8.32-8.8c4.08,0,7.47,2.91,7.47,7.91C238.27,269.61,238.23,270.13,238.2,270.54Zm22.53-44.91a6.33,6.33,0,0,1-6.35,6.35H45.7a6.34,6.34,0,0,1-6.35-6.35V16.86a6.35,6.35,0,0,1,6.35-6.35H254.38a6.34,6.34,0,0,1,6.35,6.35Z"/>
    </g>
  </g>
</svg>
