<svg id="border-twenty-three" data-name="Layer 1" xmlns="http://www.w3.org/2000/svg" width="300" height="300" viewBox="0 0 300 300">
  <g>
    <path d="M149.59,227.51a8.53,8.53,0,0,1-6-2.49l-21.23-21.23a5.23,5.23,0,0,0-3.75-1.56H57.3a8.53,8.53,0,0,1-8.53-8.53V9.13A8.53,8.53,0,0,1,57.3.6H241.87a8.53,8.53,0,0,1,8.53,8.53V193.7a8.53,8.53,0,0,1-8.53,8.53H180.6a5.25,5.25,0,0,0-3.75,1.56L155.62,225A8.51,8.51,0,0,1,149.59,227.51ZM57.3,3.83A5.3,5.3,0,0,0,52,9.13V193.7a5.31,5.31,0,0,0,5.3,5.3h61.27a8.47,8.47,0,0,1,6,2.5l21.24,21.23a5.31,5.31,0,0,0,7.5,0l21.23-21.23a8.47,8.47,0,0,1,6-2.5h61.27a5.3,5.3,0,0,0,5.3-5.3V9.13a5.3,5.3,0,0,0-5.3-5.3Z"/>
    <g>
      <polygon points="127.49 273.46 137.44 273.46 132.43 259.75 127.49 273.46"/>
      <path d="M242.25,238H58.63a9.18,9.18,0,0,0-9,9.37v42.11a9.18,9.18,0,0,0,9,9.38h183.7a9.13,9.13,0,0,0,8.9-9.38V247.36A9.17,9.17,0,0,0,242.25,238ZM97.94,279.45c-1.29.82-2.88,1.05-7.48,1.05-3.15,0-4.2-.17-5.52-.91a4.24,4.24,0,0,1-1.83-2.74,16.47,16.47,0,0,1-.3-3.56h2.54c0,2.44.07,2.88.51,3.69.6,1.15,1.35,1.32,5.41,1.32,5.45,0,6-.47,6-4.67,0-1.89-.38-2.77-1.39-3.18-.64-.27-.64-.27-4.77-.51s-4.51-.27-5.62-.78c-1.83-.91-2.58-2.43-2.58-5.28,0-2.64.55-4.23,1.7-5.11s2.91-1.32,6.77-1.32c4.26,0,6,.44,7,1.86.71.95,1,2.1,1,4.13v.38H96.89a5.25,5.25,0,0,0-.47-2.92c-.61-1-1.66-1.25-4.71-1.25-3.52,0-4.7.21-5.41,1a4.3,4.3,0,0,0-.82,3c0,2,.48,3,1.63,3.48.74.27.91.31,4.67.48,4.16.2,5.42.44,6.43,1.25,1.19.91,1.63,2.3,1.63,5C99.84,277,99.29,278.57,97.94,279.45Zm21.83-.71c-.91,1.15-2.47,1.63-5.38,1.73-.84,0-2.2,0-3.38,0-3.18,0-4.47-.27-5.89-1.22a5.71,5.71,0,0,1-2.1-3.82,52,52,0,0,1-.37-6.47c0-4.94,0-5.45.23-6.7a5.47,5.47,0,0,1,4.57-4.5,30.84,30.84,0,0,1,5.79-.34c2.84,0,3.89.17,5,.81a4.49,4.49,0,0,1,2.14,3.59c.07.71.1,1.15.17,2.74h-2.54c0-2.4-.14-3.08-.54-3.79-.58-.91-1.56-1.18-4.34-1.18-3.14,0-5.18.17-6,.51-1.42.64-1.86,1.86-1.86,5.34,0,12.73,0,12.83,6.26,12.83s6.77-.44,6.77-4.3v-1.28h2.51C120.86,276.75,120.72,277.56,119.77,278.74ZM140,280.27l-1.76-4.78H126.78l-1.73,4.78h-2.7l8.26-22.58h3.58l8.43,22.58Zm24.24,0H160l-9.48-15.37L149,262.36l-.78-1.25-.74-1.25h-.07l0,.84v19.57h-2.53V257.69h4.16l8.22,13.47,2.17,3.52,1.08,1.76,1.05,1.76h.07l0-.84V257.69h2.54Zm37.5,0h-2.53V260.16l0-.68h-.07c-.1.34-.2.58-.3.85s-.17.37-.51,1.25l-7.69,18.69h-2.57l-7.68-18.45-.44-1.05-.21-.54-.2-.51h-.07l0,.61v19.94H177V257.69h4.4l6,14.62.95,2.34.48,1.18.47,1.19h.07l.47-1.19.48-1.18.94-2.34,6-14.62h4.46Zm18.79-20.38H208.53v7.65H220v2.13H208.53v8.4h11.95v2.2H206V257.69h14.49Z"/>
    </g>
  </g>
</svg>
