<svg id="border-five" data-name="Layer 1" xmlns="http://www.w3.org/2000/svg" width="300" height="300" viewBox="0 0 300 300">
  <g>
    <path d="M253.83.69H46.09A11.28,11.28,0,0,0,34.77,12V219.83a11.33,11.33,0,0,0,11.32,11.31H253.91a11.33,11.33,0,0,0,11.32-11.31V12A11.41,11.41,0,0,0,253.83.69Zm2.64,215.59a6.1,6.1,0,0,1-6.11,6.11H49.55a6.1,6.1,0,0,1-6.11-6.11V15.47a6.1,6.1,0,0,1,6.11-6.11H250.36a6.09,6.09,0,0,1,6.11,6.11Z"/>
    <path id="IconCircleOutline" d="M64.42,246.09A23.53,23.53,0,1,0,88,269.62a23.47,23.47,0,0,0-23.53-23.53Z" fill-opacity="0"/>
    <path id="PhoneIcon" d="M74.57,254.59v29.73a3.39,3.39,0,0,1-3.38,3.38H56.57a3.39,3.39,0,0,1-3.38-3.38V254.59a3.39,3.39,0,0,1,3.38-3.38H71.19A3.46,3.46,0,0,1,74.57,254.59Zm-15.11.17A1.57,1.57,0,0,0,61,256.33h5.62a1.57,1.57,0,0,0,1.56-1.57,1.62,1.62,0,0,0-1.56-1.57H61.11A1.59,1.59,0,0,0,59.46,254.76ZM72,258.64l-16.43-.17v22H72Zm-10.4,25.43a2.23,2.23,0,1,0,2.23-2.23A2.22,2.22,0,0,0,61.61,284.07Z"/>
    <path id="PhoneIconBlack" d="M74.57,254.59v29.73a3.39,3.39,0,0,1-3.38,3.38H56.57a3.39,3.39,0,0,1-3.38-3.38V254.59a3.39,3.39,0,0,1,3.38-3.38H71.19A3.46,3.46,0,0,1,74.57,254.59Zm-15.11.17A1.57,1.57,0,0,0,61,256.33h5.62a1.57,1.57,0,0,0,1.56-1.57,1.62,1.62,0,0,0-1.56-1.57H61.11A1.59,1.59,0,0,0,59.46,254.76ZM72,258.64l-16.43-.17v22H72Zm-10.4,25.43a2.23,2.23,0,1,0,2.23-2.23A2.22,2.22,0,0,0,61.61,284.07Z" fill-opacity="0"/>
    <g>
      <path d="M235.5,240H64.42a29.68,29.68,0,0,0,0,59.36h171A29.68,29.68,0,0,0,235.5,240ZM64.42,293.15A23.53,23.53,0,1,1,88,269.62,23.47,23.47,0,0,1,64.42,293.15Zm47-14c-3.51,0-6.19-.89-7.91-2.61a1.05,1.05,0,0,1-.34-.74.88.88,0,0,1,.9-.94,1,1,0,0,1,.71.26c1.27,1.42,3.69,2.28,6.53,2.28,3.84,0,6-1.34,6-3.73,0-2.17-1.49-3.06-6.27-3.13-5.67-.08-7.61-1.39-7.61-4.56,0-3.36,3-5.48,7.69-5.48a10.26,10.26,0,0,1,7,2.35,1,1,0,0,1,.3.74.89.89,0,0,1-.86.94,1.06,1.06,0,0,1-.75-.26,8.08,8.08,0,0,0-5.56-2c-3.58,0-5.9,1.45-5.9,3.69,0,1.94,1.42,2.69,5.9,2.76,5.9.08,8,1.53,8,5S116.46,279.17,111.46,279.17Zm27.35-3.35a8.82,8.82,0,0,1-7.35,3.35c-5.52,0-9.36-3.76-9.36-9.32a8.92,8.92,0,0,1,9.36-9.33,9.2,9.2,0,0,1,7,2.91,1.05,1.05,0,0,1,.26.67.86.86,0,0,1-.89.89,1,1,0,0,1-.75-.33,7.33,7.33,0,0,0-5.6-2.35c-4.44,0-7.42,3.06-7.42,7.54s3,7.53,7.42,7.53a7.12,7.12,0,0,0,5.9-2.76.93.93,0,0,1,.75-.33.89.89,0,0,1,.89.93A1,1,0,0,1,138.81,275.82Zm21.87,2.09a1,1,0,1,1-1.9,0v-2.62h-.07c-1.46,2.47-4.15,3.88-7.62,3.88-5.37,0-9.07-3.76-9.07-9.32s3.7-9.33,9.07-9.33c3.47,0,6.16,1.42,7.62,3.88h.07v-2.58c0-.67.34-1.08.93-1.08s1,.41,1,1.08Zm22,0a.94.94,0,0,1-1,1c-.6,0-.93-.41-.93-1V269c0-4.41-2.13-6.68-6.27-6.68s-6.79,2.91-6.79,7.46v8.14a1,1,0,1,1-1.91,0V261.79a1,1,0,1,1,1.91,0v2.42h.07c1.35-2.35,3.81-3.69,7.09-3.69,5.08,0,7.8,2.91,7.8,8.32Zm40.68,0a1,1,0,1,1-1.91,0v-9.22c0-4.18-1.79-6.38-5.15-6.38s-5.63,2.72-5.63,7.09v8.51a1,1,0,1,1-1.9,0v-9.22c0-4.18-1.8-6.38-5.15-6.38S198,265,198,269.4v8.51a.92.92,0,0,1-1,1c-.6,0-.93-.41-.93-1V261.82c0-.67.33-1.08.93-1.08s1,.41,1,1.08v1.94h.08a6.41,6.41,0,0,1,5.89-3.24,6,6,0,0,1,6,3.84h.08a6.8,6.8,0,0,1,6.53-3.84c4.51,0,6.79,2.8,6.79,8Zm21.08-7.39H229.09c.26,4.1,3.17,6.86,7.57,6.86a7.52,7.52,0,0,0,6.05-2.76,1,1,0,0,1,.71-.37.93.93,0,0,1,1,1,1.06,1.06,0,0,1-.26.63,9.4,9.4,0,0,1-7.47,3.28c-5.71,0-9.55-3.76-9.55-9.32s3.84-9.33,9.37-9.33c5.33,0,9.14,3.73,9.14,8.88A1.09,1.09,0,0,1,244.46,270.52Z"/>
      <path d="M151.35,262.31c-4.4,0-7.39,3.06-7.39,7.54s3,7.53,7.39,7.53a7.54,7.54,0,0,0,0-15.07Z"/>
      <path d="M236.48,262.31a7,7,0,0,0-7.35,6.45h14.66A7,7,0,0,0,236.48,262.31Z"/>
    </g>
  </g>
</svg>
