<svg id="Layer_19" data-name="Layer 1" xmlns="http://www.w3.org/2000/svg" width="300" height="300" viewBox="0 0 300 300">
  <g>
    <polygon points="249.68 12.68 249.68 15.45 285.62 15.45 285.62 295.71 14.38 295.71 14.38 15.45 47.55 15.45 47.55 12.68 11.61 12.68 11.61 298.49 288.39 298.49 288.39 12.68 249.68 12.68"/>
    <g>
      <path d="M80.84,16.05a16.3,16.3,0,0,1-6.53-3.17,6,6,0,0,1-2-4.63,6.38,6.38,0,0,1,2.5-5.17,9.91,9.91,0,0,1,6.49-2,10.91,10.91,0,0,1,4.86,1A7.94,7.94,0,0,1,89.42,5a7.41,7.41,0,0,1,1.17,4.05h-3.5a4.84,4.84,0,0,0-1.53-3.79,6.22,6.22,0,0,0-4.3-1.37,6.39,6.39,0,0,0-4,1.13,3.78,3.78,0,0,0-1.45,3.16,3.43,3.43,0,0,0,1.37,2.74A13.44,13.44,0,0,0,81.83,13,21.47,21.47,0,0,1,87,15a7.83,7.83,0,0,1,2.76,2.61,6.63,6.63,0,0,1,.9,3.5,6.19,6.19,0,0,1-2.51,5.15,10.67,10.67,0,0,1-6.7,1.93,12.48,12.48,0,0,1-5.08-1,8.53,8.53,0,0,1-3.64-2.86,7,7,0,0,1-1.29-4.12h3.51A4.55,4.55,0,0,0,76.71,24a7.44,7.44,0,0,0,4.73,1.39,6.85,6.85,0,0,0,4.23-1.12,3.68,3.68,0,0,0,1.47-3.07,3.59,3.59,0,0,0-1.36-3A15.62,15.62,0,0,0,80.84,16.05Z"/>
      <path d="M114.56,19.45a9.71,9.71,0,0,1-3.09,6.47,10.16,10.16,0,0,1-6.93,2.28A9.32,9.32,0,0,1,97,24.84c-1.88-2.24-2.82-5.23-2.82-9V13.31a15,15,0,0,1,1.31-6.48,9.9,9.9,0,0,1,3.73-4.3A10.48,10.48,0,0,1,104.85,1a9.52,9.52,0,0,1,6.75,2.35,9.84,9.84,0,0,1,3,6.51h-3.5a7.6,7.6,0,0,0-2-4.59,6,6,0,0,0-4.24-1.42,6.22,6.22,0,0,0-5.24,2.47q-1.9,2.47-1.9,7V16a11.66,11.66,0,0,0,1.8,6.85,5.82,5.82,0,0,0,5,2.54A6.76,6.76,0,0,0,109,24a7.36,7.36,0,0,0,2.06-4.59Z"/>
      <path d="M133.92,20.92H122.84l-2.49,6.92h-3.59L126.86,1.4h3L140,27.84h-3.58Zm-10-2.85h9L128.38,5.7Z"/>
      <path d="M163.9,27.84h-3.5L147.09,7.47V27.84h-3.51V1.4h3.51l13.34,20.47V1.4h3.47Z"/>
      <path d="M183.8,1.4,192.45,23,201.09,1.4h4.52V27.84h-3.48V17.54l.32-11.11-8.68,21.41H191.1L182.44,6.48l.35,11.06v10.3H179.3V1.4Z"/>
      <path d="M226.71,15.62H215.25V25h13.32v2.85h-16.8V1.4h16.61V4.25H215.25v8.52h11.46Z"/>
    </g>
  </g>
</svg>
