
<svg class='.second' version="1.1" id="Layer_10" xmlns="http://www.w3.org/2000/svg"  x="0px" y="0px"
	 width="300px" height="300px" viewBox="0 0 300 300"  xml:space="preserve">
<g>
	<path id="CallToActionArrow_1_" d="M73.57,175.23L73.57,175.23c0.12-2.06,0.3-4.19,0.49-6.25c0.24-2.06,0.49-4.13,0.85-6.13
		c0.36-2,0.79-4.01,1.27-5.95c0.55-1.88,1.15-3.76,1.94-5.28l0,0c0.06-0.18,0.12-0.42,0.18-0.67c0.36-1.94-0.85-3.82-2.79-4.19
		l-0.18-0.06c-0.24-0.06-0.36-0.06-0.55-0.06s-0.3-0.06-0.49-0.06c-0.3,0-0.61-0.06-0.91-0.06c-0.61,0-1.21,0.06-1.82,0.06
		c-1.21,0.12-2.37,0.24-3.52,0.42c-2.31,0.36-4.61,0.85-6.8,1.46c-2.18,0.67-4.37,1.4-6.43,2.31c-1.03,0.42-2.06,0.97-3.1,1.4
		c-1.03,0.49-2,1.09-2.97,1.58c-0.3,0.18-0.49,0.49-0.36,0.85c0.12,0.42,0.49,0.67,0.91,0.55h0.06c1.09-0.24,2.12-0.55,3.16-0.79
		c1.09-0.24,2.12-0.49,3.16-0.61c2.12-0.42,4.25-0.61,6.37-0.73c1.34-0.06,2.73-0.06,4.07-0.06c-2.79,3.28-5.22,6.8-7.22,10.44
		c-2.73,4.92-4.86,10.07-6.55,15.36c-3.34,10.56-4.98,21.55-4.98,32.53c0,10.92,1.64,21.91,5.04,32.29
		c3.46,10.38,8.68,20.09,15.54,28.53c0.3,0.36,0.85,0.49,1.27,0.18c0.42-0.3,0.49-0.91,0.18-1.27l0,0
		c-6.31-8.5-11.05-18.15-13.9-28.28c-2.85-10.14-3.94-20.76-3.52-31.2c0.42-10.5,2.43-20.88,6.01-30.65
		c1.82-4.86,4.01-9.59,6.68-13.96c1.7-2.79,3.58-5.4,5.71-7.77c0,1.21,0,2.37,0.06,3.58c0.12,2.18,0.24,4.31,0.49,6.43
		s0.49,4.25,0.85,6.37c0.06,0.42,0.42,0.79,0.91,0.85C73.09,176.2,73.57,175.78,73.57,175.23z"/>
	<g>
		<path d="M86.26,291.14c0-0.11,0.05-0.11,0.05-0.11C86.31,291.14,86.26,291.03,86.26,291.14z M88.91,286.84
			c-1.17,1.01-2.23,2.76-2.12,4.46c-0.27-0.05-0.21-0.42-0.27-0.69c-0.05,0.27-0.05,0.32-0.16,0.64c0.42,0.42,0.74,0.69,0.9,1.22
			c0.05,0.05,0.21,0.05,0.27,0.16c0.53,0.85,1.27,1.54,1.65,2.5c0.8,0.58,1.33,1.17,2.23,1.49c0.58,0.16,1.27,0.16,1.81,0.42
			c1.27,0,2.23,0,3.45-0.11c0.64-0.27,1.49-0.53,2.23-0.58c0-0.11,0.21-0.11,0.32-0.21c2.97-1.01,5.47-2.34,7.49-4.25
			c2.23-1.54,4.14-4.2,3.5-7.7c-0.16-0.21-0.11-0.32-0.16-0.69c-0.85-2.07-2.18-3.51-3.77-4.67c-1.01-0.53-2.07-1.06-3.13-1.38
			c0-0.16-0.11-0.16-0.11-0.21c-1.49-0.64-3.13-1.01-4.67-1.22c-1.91-0.16-3.56-0.05-5.1-0.32c-1.22,0.05-2.18-0.16-3.19-0.42
			c-0.27-0.27-0.21-0.64-0.42-0.9c0.16-0.42,0.32-0.85,0.42-1.33c0.85-1.27,1.7-2.76,2.87-3.82c0-0.16,0.05-0.05,0.05-0.27
			c2.28-2.28,4.67-4.51,7.49-6.43c2.07-1.27,4.14-2.71,6.9-3.35l0.11,0.16c0.05,0.27-0.27,0.48-0.11,0.74
			c-0.11,0.05-0.16-0.11-0.16,0.16c0.05,0,0.11,0,0.11,0.05c-0.37,0.9-0.58,1.27-0.69,2.18c-0.05-0.11-0.11,0-0.21,0.05
			c0.11,0.16,0,0.32,0.11,0.64c-0.21-0.05,0,0.32-0.21,0.16c0.11,0.48-0.21,0.74,0.05,0.96c0,0.16-0.11,0.16-0.11,0.42
			c0.58-0.16,1.06,0.42,1.65,0.32c0.21,0.37,1.06,0.05,1.22,0.53c0.05-0.32,0.42-0.32,0.74-0.37c0.21-1.86,1.27-3.03,1.33-5.1
			c-0.53-2.82-3.66-3.19-6.16-3.88c-0.11,0-0.32,0-0.37,0.05c-0.21-0.11-0.8-0.32-0.85-0.16c0.05,0,0.05,0.05,0.05,0.11
			c0.11,0,0.16,0,0.16,0.11c-0.16-0.05-0.21,0-0.21,0.16c0.16,0.05,0.21-0.05,0.27,0.16c-1.65,0.21-3.24,1.06-4.51,2.02
			c0.48-0.16,0.74-0.53,1.33-0.64c0-0.16,0.05-0.21,0.11,0c-0.05,0-0.05,0-0.11,0c-0.9,0.48-1.91,1.17-2.76,1.65
			c0.42-0.48,1.06-0.64,1.43-1.01c-0.96,0.37-1.65,1.01-2.44,1.59c0.27-0.16,0.48-0.32,0.8-0.42c-0.27,0.27-0.58,0.53-0.96,0.58
			c-0.9,0.9-1.86,1.59-2.87,2.39c-2.23,2.02-4.25,4.2-6.16,6.59c-0.37,0.8-0.74,1.54-1.12,2.39c-0.05,0.05,0.05,0.27-0.05,0.27
			c-0.11-0.11-0.11-0.21,0.05-0.27c0.27-0.96,0.64-1.75,1.12-2.39c0.16-0.42,0.74-0.69,0.74-1.06c-0.58,0.64-1.06,1.33-1.49,1.97
			c0-0.16,0.32-0.37,0.21-0.58c-0.32,0.53-0.16,1.06-0.58,1.27c-0.21,0.21-0.16,0.74-0.27,0.9c-0.05,1.22,0.37,1.91,0.96,2.71
			c0.11,0.85,0.64,1.28,1.01,1.91c1.12,1.06,2.6,1.59,4.2,1.96c4.94,0.58,10.83,0,13.65,2.92c0.16,0.37,0.05,0.74,0.27,1.06
			c0.11,0.58-0.11,1.22,0.11,1.54c-0.05,0-0.11,0-0.11,0c0,0.9-0.53,1.49-0.58,2.12c0-0.21,0.05-0.21,0.21-0.21
			c0.05-0.16,0-0.27,0.05-0.37c0.11,0.21,0.05,0.27-0.05,0.37c-0.32,0.9-1.01,1.43-1.49,2.18c0.16,0.05,0.05-0.11,0.27-0.11
			c0-0.16,0.21-0.42,0.32-0.27c-0.05,0.11-0.27,0.16-0.32,0.27c-0.32,0.42-0.69,1.01-1.17,1.27c0,0,0,0.05-0.05,0.05
			c-0.42,0.11-0.69,0.9-1.22,0.69c0.16,0.32-0.16,0.53-0.37,0.37c0.05,0.27-0.64,0.53-0.58,0.37c-0.21,0.21-0.53,0.58-1.06,0.74
			c-0.42,0.32-0.9,0.69-1.49,0.64c-0.11,0.16,0.21,0,0.16,0.11c-0.27,0-0.53,0.42-0.64,0.21c-0.8,0.43-1.59,0.37-1.97,0.96
			c0-0.16,0-0.21-0.16-0.21c-0.27,0.21-0.69,0.21-0.9,0.37c-0.05-0.05,0-0.27-0.16-0.27c0,0.16,0.05,0.16,0.05,0.27
			c-1.27,0.27-2.55,0.32-3.56,0.37c-0.05-0.16,0.11-0.32-0.16-0.32c-0.05,0-0.05,0-0.11,0c0.05,0.16,0.21,0.21,0.05,0.32
			c-0.11-0.05-0.05-0.16-0.32-0.11c-0.8,0.05-1.59-0.37-1.43-1.27c-0.21-0.53-0.42-0.96-0.32-1.65c0-0.16-0.16-0.05-0.16-0.16
			c0.16-0.21-0.05-0.32,0.05-0.64c-0.16,0-0.05,0.42-0.32,0.42c0.32-0.64,0.16-1.22,0.58-1.54c-0.32-0.32,0-0.53,0-0.8
			c-0.16,0-0.05,0.21-0.32,0.21c0.05,0.05-0.05,0.11-0.05,0.05s0.05-0.05,0.05-0.05c0.16-0.42,0.32-0.74,0.53-1.06
			c-0.21,0-0.48,0.43-0.58,0.37c0.21-0.37,0.53-0.58,0.69-0.85c-0.16-0.05-0.32,0.27-0.37,0.16c0.27-0.48,0.69-0.9,0.69-1.49
			c-0.37,0.05-0.42,0.42-0.96,0.42c-0.8,0.85-1.75,1.59-2.34,2.66c0,0.42-0.64,0.96-0.48,1.33
			C87.21,288.59,87.85,287.53,88.91,286.84c0.11-0.11,0.16-0.32,0.32-0.27c0.11-0.16,0.16-0.32,0.27-0.21
			c-0.11,0.05-0.05,0.21-0.27,0.21C89.23,286.73,89.12,286.78,88.91,286.84z M86.36,290.18c0.11,0.05-0.05,0.21,0.11,0.21
			c-0.11-0.11,0.11-0.05,0.11-0.21C86.52,290.18,86.47,290.18,86.36,290.18z M86.52,271.06 M86.63,270.64 M86.95,270.48
			c0.16,0.11-0.16,0.16-0.05,0.32C86.95,270.74,87.16,270.53,86.95,270.48z M86.95,291.19c0-0.05,0-0.05-0.05-0.05
			c0-0.11,0.32-0.11,0.27,0.05C87.11,291.19,87.11,291.19,86.95,291.19z M87.11,290.61c0-0.53,0.16-0.9,0.32-1.27
			C87.48,289.7,87.21,290.29,87.11,290.61z M87.11,291.56 M87.32,270.9c0-0.05,0-0.05,0-0.11h0.11c0,0.05,0,0.05,0,0.11H87.32z
			 M87.48,269.63c0.16,0,0.11-0.16,0.16-0.27C87.53,269.36,87.53,269.52,87.48,269.63z M87.48,269.63 M87.48,289.97
			c0-0.32,0.27-0.32,0.16-0.64C87.9,289.38,87.58,289.86,87.48,289.97z M87.53,270.64c-0.11-0.05,0.05-0.16,0-0.21
			C87.8,270.43,87.53,270.59,87.53,270.64z M87.53,289.23c0-0.11,0-0.16,0-0.21C87.64,288.96,87.64,289.28,87.53,289.23z
			 M87.64,289.01c-0.11-0.05,0.11-0.21,0-0.27C87.9,288.64,87.74,288.91,87.64,289.01z M87.9,268.94c-0.11,0.11-0.11,0.27-0.27,0.32
			C87.85,269.26,87.85,269.15,87.9,268.94z M87.8,289.23 M87.85,270 M87.85,288.59 M87.9,288.43c-0.11,0,0-0.16,0.16-0.11
			C88.06,288.43,87.96,288.38,87.9,288.43z M88.8,268.67c0.11-0.32,0.21-0.58,0.42-0.58C89.12,268.25,89.07,268.51,88.8,268.67
			c0.05,0.16-0.05,0.21-0.11,0.27c-0.11,0.11-0.16,0.32-0.42,0.37c-0.05,0.21-0.16,0.37-0.37,0.48c0.16-0.21,0.21-0.42,0.37-0.48
			c0.16-0.16,0.21-0.32,0.42-0.37c0-0.11,0.05-0.21,0.05-0.27C88.8,268.67,88.8,268.67,88.8,268.67z M88.06,268.89
			c-0.11,0-0.16,0-0.16,0.05C87.96,268.94,88.06,268.94,88.06,268.89z M87.96,288.91c0.11-0.27,0.16-0.32,0.21-0.48
			C88.27,288.48,88.11,288.8,87.96,288.91c0,0.05,0,0.11-0.05,0.11c0-0.05,0-0.11,0-0.11H87.96z M88.11,268.73
			c-0.05,0-0.05,0.11-0.05,0.16C88.11,268.89,88.11,268.83,88.11,268.73z M88.22,268.51c0,0,0,0-0.05,0c0,0.16-0.11,0.05-0.05,0.21
			C88.17,268.67,88.22,268.67,88.22,268.51z M88.27,287.95c0,0.05-0.05,0.05-0.11,0.05C88.17,287.95,88.22,288,88.27,287.95z
			 M88.22,268.51 M88.22,288.38 M88.43,268.25c0,0,0,0.05,0,0.11h0.05c0-0.05,0-0.11,0-0.11H88.43z M88.59,287.63 M88.7,268.04
			 M88.91,268.04c-0.11,0-0.16,0-0.16,0.16C88.86,268.2,88.91,268.09,88.91,268.04z M88.75,287.95 M88.8,267.77 M89.12,267.72h-0.05
			c0,0.16-0.16,0.16-0.16,0.32C89.02,267.98,89.12,267.88,89.12,267.72z M89.12,267.4c-0.11-0.05-0.11,0.21-0.05,0.21
			C89.12,267.56,89.12,267.45,89.12,267.4z M89.12,267.4 M89.12,267.72c0.05,0,0.05,0,0.05-0.05
			C89.12,267.66,89.12,267.66,89.12,267.72z M89.44,267.35c-0.11,0.05-0.27,0.21-0.27,0.32C89.34,267.61,89.39,267.56,89.44,267.35z
			 M89.34,267.03c0,0.05-0.21,0.21-0.11,0.32C89.34,267.24,89.5,267.08,89.34,267.03z M89.5,267.72c0.27-0.32,0.48-0.58,0.64-0.74
			C90.13,267.13,89.81,267.56,89.5,267.72c0,0.05,0,0.21-0.11,0.16C89.39,267.77,89.44,267.72,89.5,267.72z M89.76,267.03
			c-0.27,0-0.27,0.11-0.32,0.32C89.5,267.24,89.76,267.24,89.76,267.03z M89.55,268.67H89.5H89.55z M89.5,286.36
			c0-0.16,0.27-0.16,0.27-0.27l0.05,0.05c0,0.05,0,0.05,0,0.11C89.65,286.2,89.76,286.41,89.5,286.36z M90.08,266.66
			c-0.21,0.05-0.27,0.16-0.32,0.37C89.87,266.92,90.03,266.81,90.08,266.66z M89.97,266.34c0,0.05-0.21,0.16-0.11,0.27
			C89.97,266.44,90.13,266.39,89.97,266.34z M90.19,266.5c-0.05,0-0.11,0.11-0.11,0.16C90.13,266.66,90.19,266.6,90.19,266.5z
			 M90.08,292.15 M90.13,266.18 M91.09,265.49h-0.11c-0.27,0.32-0.58,0.64-0.8,1.01C90.5,266.18,90.77,265.86,91.09,265.49z
			 M91.94,265.17c0.05-0.27,0.16-0.48,0.58-0.48C92.26,264.8,92.1,265.01,91.94,265.17c-0.32,0.32-0.58,0.69-1.11,1.01v0.11
			c-0.05,0.11-0.11,0.32-0.32,0.32c0,0.16-0.11,0.11-0.16,0.21c-0.16-0.05,0.11-0.16,0.16-0.21c0.11-0.16,0.16-0.32,0.32-0.32
			c0-0.11,0-0.11,0-0.11C91.25,265.75,91.46,265.38,91.94,265.17z M90.45,265.81c-0.11-0.05-0.16,0.27-0.11,0.27
			C90.35,266.02,90.5,266.02,90.45,265.81z M90.45,265.81c0.05,0,0.05,0,0.05-0.05C90.45,265.75,90.45,265.75,90.45,265.81z
			 M90.5,265.75c0.16-0.05,0.21-0.11,0.27-0.27C90.66,265.49,90.5,265.65,90.5,265.75z M90.72,293.58 M90.82,265.22
			c0,0.11,0,0.11,0,0.16h0.11c0-0.05,0-0.05,0-0.16H90.82z M90.93,293.58c0.05,0,0.16,0,0.16-0.05
			C90.98,293.58,90.93,293.53,90.93,293.58z M91.41,265.17c-0.11,0-0.27,0.16-0.32,0.32C91.3,265.49,91.35,265.33,91.41,265.17z
			 M91.09,265.17 M91.41,265.17c0.27-0.11,0.48-0.32,0.53-0.48C91.73,264.74,91.57,264.9,91.41,265.17z M91.46,293.58 M91.67,264.53
			 M91.94,264.21c-0.05,0-0.05,0.16-0.16,0.21C91.94,264.43,91.99,264.37,91.94,264.21z M91.94,264.21 M92.52,264.11
			c-0.21,0.05-0.53,0.27-0.48,0.42C92.2,264.37,92.42,264.21,92.52,264.11z M92.26,263.89 M92.26,293.69c0.05,0,0.05,0,0.05,0.05
			c0.11,0,0.11,0,0.21,0C92.58,293.58,92.26,293.53,92.26,293.69z M92.52,263.63c0,0.11-0.11,0.11-0.11,0.21
			C92.52,263.84,92.63,263.63,92.52,263.63z M92.52,264.11c0.11-0.05,0.21-0.16,0.21-0.27C92.58,263.84,92.58,263.95,92.52,264.11z
			 M92.52,264.53c0.05-0.16,0.11-0.32,0.21-0.32C92.73,264.37,92.68,264.48,92.52,264.53z M92.73,263.52
			c-0.05,0-0.11,0.05-0.11,0.11C92.73,263.63,92.84,263.58,92.73,263.52z M94.86,261.88c-0.69,0.64-1.54,1.11-2.12,1.96
			c0.53-0.32,0.8-0.9,1.38-1.06C94.27,262.35,94.75,262.3,94.86,261.88z M92.73,263.52c0.11,0,0.11-0.05,0.11-0.05
			S92.73,263.47,92.73,263.52z M92.84,263.47 M94.59,262.57c0.53-0.42,1.01-0.9,1.54-1.27C95.87,261.72,95.23,262.25,94.59,262.57
			c-0.27,0.37-0.58,0.74-1.06,0.96c0,0.32-0.32,0.58-0.58,0.58c0.21-0.21,0.37-0.48,0.58-0.58
			C93.9,263.15,94.22,262.78,94.59,262.57z M93.21,263.1c-0.16,0-0.21,0.05-0.21,0.21C93.21,263.31,93.16,263.15,93.21,263.1z
			 M93.53,262.78c-0.16,0-0.21,0.11-0.27,0.16C93.37,262.94,93.48,262.88,93.53,262.78z M93.27,294.11 M93.48,264.37
			c0,0.05-0.11,0.05-0.16,0.05C93.32,264.37,93.37,264.43,93.48,264.37z M93.53,262.78 M93.53,262.78 M93.53,294.11v-0.11
			c0.05-0.11,0.11,0,0.11,0.11C93.58,294.11,93.53,294.11,93.53,294.11z M94.01,293.69 M94.12,263.84 M94.12,294.01 M94.22,262.25
			 M94.22,293.58 M94.33,293.85c0,0.05-0.05,0.05-0.11,0.05C94.22,293.85,94.27,293.85,94.33,293.85z M94.49,261.82
			c0,0,0,0.05-0.05,0.05v0.11C94.54,262.14,94.59,261.82,94.49,261.82z M94.43,293.53 M94.81,293.85c-0.05,0.16-0.27,0.05-0.32,0
			C94.49,293.74,94.75,293.85,94.81,293.85z M94.75,261.66c-0.27,0.32,0.21-0.11,0-0.05C94.75,261.61,94.75,261.61,94.75,261.66z
			 M94.86,293.79c0.05-0.05,0.11-0.05,0.32-0.05C95.28,293.85,94.81,294.01,94.86,293.79z M94.86,261.88
			c0.53-0.27,0.85-0.53,1.06-0.85C95.55,261.24,95.23,261.56,94.86,261.88z M95.12,261.4c0-0.05,0.05-0.05,0.05-0.05
			C95.18,261.4,95.12,261.34,95.12,261.4z M95.44,293.37c-0.16,0-0.21,0-0.21,0.11C95.39,293.47,95.39,293.42,95.44,293.37z
			 M95.5,293.69c-0.05,0-0.05,0.05-0.21,0.05c0-0.16,0.11-0.16,0.21-0.16V293.69C95.76,293.58,95.5,293.79,95.5,293.69z
			 M95.39,261.24 M95.71,293.74c0.05-0.05,0.11-0.16,0.11-0.21C95.92,293.53,95.82,293.79,95.71,293.74z M95.87,262.25
			C95.87,262.19,95.92,262.25,95.87,262.25C95.87,262.3,95.82,262.3,95.87,262.25z M95.87,293.26 M95.92,260.76 M96.72,260.39
			c-0.16,0.32-0.58,0.32-0.69,0.64C96.24,260.92,96.82,260.55,96.72,260.39z M96.24,293.05c0,0.11-0.16,0.05-0.16,0.16
			C96.19,293.26,96.51,293.1,96.24,293.05z M96.13,260.65 M96.35,260.34c0,0.05-0.11,0.11-0.16,0.21
			C96.35,260.55,96.51,260.39,96.35,260.34z M96.24,261.34c-0.11-0.11,0.11-0.11,0.11-0.27C96.56,261.03,96.51,261.4,96.24,261.34z
			 M96.72,260.23c-0.16,0-0.16,0.05-0.21,0.11C96.66,260.34,96.66,260.28,96.72,260.23z M96.51,261.03
			c0.05-0.11,0.21-0.16,0.37-0.16C96.82,260.92,96.72,261.03,96.51,261.03z M96.56,293.05 M96.77,260.07 M96.82,292.94
			 M97.14,260.23c-0.11-0.11-0.32,0.11-0.16,0.16C96.98,260.28,97.09,260.28,97.14,260.23z M97.04,260.02 M97.04,260.71
			 M97.04,292.89 M97.51,259.64c-0.16,0.05-0.37,0.05-0.37,0.27C97.36,259.8,97.41,259.75,97.51,259.64z M97.3,293.1 M97.36,260.44
			c-0.05-0.05,0-0.11,0-0.11C97.46,260.34,97.36,260.39,97.36,260.44z M97.83,259.43c-0.16,0-0.16,0.05-0.21,0.16
			C97.78,259.64,97.94,259.59,97.83,259.43z M97.62,260.97 M97.62,292.94 M97.83,260.87c0,0.05-0.05,0-0.16,0.05
			C97.67,260.87,97.78,260.87,97.83,260.87z M97.78,292.94c0-0.05,0-0.05,0-0.11h0.05c0,0.05,0,0.05,0,0.11H97.78z M97.83,259.43
			c0.27,0,0.32-0.27,0.53-0.37C98.1,259.06,98.05,259.33,97.83,259.43z M98.1,259.75c0,0.05-0.05,0-0.11,0.05
			C97.99,259.75,98.05,259.75,98.1,259.75z M98.36,292.57C98.42,292.47,98.63,292.62,98.36,292.57c0.05,0.05,0,0.21-0.11,0.21
			c-0.11,0.11-0.27-0.16,0,0C98.26,292.62,98.31,292.57,98.36,292.57z M99.21,258.48c-0.32,0.16-0.58,0.32-0.85,0.53
			C98.68,258.85,99.27,258.74,99.21,258.48z M98.68,260.23c0,0.05-0.05,0.05-0.05,0.05C98.63,260.23,98.68,260.23,98.68,260.23z
			 M98.63,292.41 M99.21,259.33c-0.21,0,0.05-0.27,0.16-0.27C99.37,259.17,99.27,259.17,99.21,259.33z M99.21,292.57 M99.27,259.96
			c0-0.05,0-0.05,0-0.16c0.05,0,0.05,0,0.11,0c0,0.11,0,0.11,0,0.16C99.32,259.96,99.32,259.96,99.27,259.96z M99.37,291.67
			 M100.06,258.69c0.11-0.16,0.21-0.21,0.42-0.21C100.33,258.53,100.22,258.64,100.06,258.69c0,0.05-0.05,0.11-0.16,0.05
			c0,0.05,0,0.05-0.05,0.05c-0.11,0.05-0.21,0.16-0.32,0.21c0,0.11-0.21-0.05,0,0c0.05-0.16,0.16-0.21,0.32-0.21
			c0,0,0-0.05,0.05-0.05C99.9,258.69,99.96,258.69,100.06,258.69z M99.64,258.21c0,0-0.05,0-0.05,0.11c0.05,0,0.16,0,0.11-0.11
			H99.64z M99.69,259.59 M99.96,291.67 M100.01,258 M101.02,257.41c-0.21,0.11-0.53,0.27-0.8,0.58
			C100.54,257.79,101.18,257.52,101.02,257.41z M100.54,258.48 M100.59,291.46 M100.59,291.46 M100.65,290.93
			c0.05,0,0.05,0,0.05-0.05C100.65,290.87,100.65,290.93,100.65,290.93z M100.65,290.93 M100.7,290.87 M100.86,258.21
			c0-0.11,0.16-0.05,0.16-0.16C101.23,258.1,100.97,258.21,100.86,258.21z M100.86,291.19 M100.91,257.2 M100.91,257.2
			 M101.02,257.15 M101.02,290.66c0.16,0,0.21,0,0.27-0.05C101.18,290.55,101.13,290.61,101.02,290.66z M101.02,290.71
			c0-0.05,0-0.05,0-0.05C101.02,290.71,101.02,290.71,101.02,290.71z M101.02,290.71 M101.28,257.73c0.05-0.05,0.16-0.16,0.27-0.16
			C101.5,257.68,101.44,257.79,101.28,257.73c-0.05,0.05-0.05,0.05-0.11,0.05c0,0.21-0.21-0.05,0,0
			C101.18,257.73,101.23,257.73,101.28,257.73z M101.5,257.2c-0.21,0-0.21,0.05-0.27,0.21C101.34,257.41,101.44,257.36,101.5,257.2z
			 M101.28,258.05 M101.55,291.3c0,0.16-0.05,0-0.05,0.16C101.5,291.3,101.55,291.3,101.55,291.3z M101.66,257.52
			c0,0.05-0.05,0.05-0.11,0.05C101.55,257.52,101.6,257.52,101.66,257.52z M101.66,257.15 M102.08,256.94
			c-0.16,0-0.16,0.11-0.21,0.16C101.98,257.1,101.98,257.04,102.08,256.94z M102.13,257.57c-0.05-0.05-0.16-0.11-0.16-0.16
			C102.08,257.41,102.13,257.47,102.13,257.57z M101.98,290.55 M102.13,256.88 M102.4,256.88 M102.4,290.08 M102.61,257.36
			c-0.16,0-0.16-0.27,0-0.21C102.61,257.2,102.61,257.26,102.61,257.36z M102.83,256.62 M102.88,257.15 M102.88,289.38
			 M103.14,289.6c0,0.05-0.11,0.05-0.11,0.11c0.11,0,0.21,0,0.16-0.11H103.14z M103.36,257.04c0,0.05-0.11,0.05-0.16,0.05
			C103.2,257.04,103.25,257.04,103.36,257.04z M103.46,289.28c-0.11,0-0.27,0.11-0.11,0.16
			C103.36,289.38,103.41,289.33,103.46,289.28z M103.46,256.3c0,0.11,0,0.11,0,0.16h0.05c0-0.05,0-0.05,0-0.16H103.46z
			 M103.46,256.94 M103.46,257.2v-0.05h0.05v0.05H103.46z M103.52,289.28 M103.57,256.62c0.11-0.11,0.11,0.11,0.16,0
			C103.73,256.51,103.57,256.51,103.57,256.62z M103.89,256.19c-0.11,0-0.16,0-0.16,0.11C103.83,256.3,103.89,256.25,103.89,256.19z
			 M103.89,289.23c0-0.21-0.21,0.05-0.05,0.05C103.83,289.23,103.83,289.23,103.89,289.23z M103.78,289.01c0.05,0,0.05,0,0.11,0
			c0-0.05,0-0.11,0-0.11C103.78,288.91,103.78,288.96,103.78,289.01z M103.78,289.01 M104.05,288.75 M104.1,256.3v-0.05
			c0.11-0.05,0.21,0,0.11,0.05C104.21,256.3,104.15,256.3,104.1,256.3z M104.21,256.62c0-0.11,0-0.16,0-0.16c0.11,0,0.16,0,0.27,0
			C104.52,256.62,104.31,256.51,104.21,256.62z M104.63,288.27c-0.27,0-0.27,0.16-0.32,0.32
			C104.52,288.48,104.47,288.32,104.63,288.27z M104.63,288.27 M105.59,286.57h0.05H105.59z M105.59,286.84 M105.91,286.25
			c0,0,0.05,0,0.05-0.05C105.96,286.2,105.91,286.2,105.91,286.25z M105.91,287.1 M106.06,286.73c-0.05-0.16,0.05-0.16,0.16-0.16
			C106.22,286.68,106.12,286.73,106.06,286.73z M106.28,286.57c-0.16-0.05,0.05-0.16,0-0.21
			C106.54,286.25,106.28,286.46,106.28,286.57z M106.22,264.37c0,0,0.05,0,0.11,0C106.33,264.37,106.28,264.37,106.22,264.37z
			 M106.44,286.09 M106.54,263.52 M106.7,264.37c0.05,0.11-0.16,0.11-0.11,0C106.65,264.27,106.65,264.37,106.7,264.37z
			 M106.65,262.78c0-0.11,0-0.16,0-0.21C106.86,262.51,106.86,262.83,106.65,262.78z M106.65,262.94 M106.65,263.15 M106.75,262.99
			c0-0.05,0-0.11,0-0.11c0.11,0,0.11,0,0.16,0c0,0,0,0.05,0,0.11C106.86,262.99,106.86,262.99,106.75,262.99z M106.97,261.66
			 M107.02,261.4 M107.18,261.29c0-0.11,0-0.27,0.11-0.21C107.29,261.19,107.29,261.29,107.18,261.29z M107.23,260.92v-0.05
			c0.05,0,0.05,0,0.11,0v0.05C107.29,260.92,107.29,260.92,107.23,260.92z M107.34,260.65 M107.55,259.8c0-0.05,0-0.11,0-0.11
			c0.05,0,0.05,0,0.11,0c0,0,0,0.05,0,0.11C107.6,259.8,107.6,259.8,107.55,259.8z M107.6,259.43"/>
		<path d="M114.3,282.85c-0.21-0.11-0.05-0.16-0.05-0.27C114.3,282.64,114.35,282.85,114.3,282.85z M114.3,281.74
			c-0.11-0.16,0-0.27-0.05-0.42C114.35,281.37,114.35,281.58,114.3,281.74z M114.24,282.11 M114.24,283.06 M114.35,284.92
			c-0.16-0.48-0.05-0.96-0.11-1.54C114.35,283.7,114.3,284.45,114.35,284.92z M114.35,280.83c0,0.21-0.11,0.42-0.05,0
			C114.3,280.73,114.35,280.83,114.35,280.83z M114.3,281.26 M114.35,280.41c-0.05-0.11-0.05-0.42,0-0.69
			C114.51,279.99,114.35,280.2,114.35,280.41z M129.27,266.02c0-0.21,0.11-0.16,0.11,0c0.11-0.27,0-0.32-0.05-0.37
			c0.37-1.75,0.05-3.77,0.16-5.31c0-0.05-0.11-0.05-0.16-0.05c0.05-1.17-0.42-2.18-0.8-3.24c-0.27,0.11,0.05,0.16,0,0.37
			c-0.21,0-0.27-0.16-0.21-0.27c-0.11-0.11-0.32-0.27-0.37-0.43c-0.21-0.21,0.11-0.21,0.05-0.42c-0.37,0-0.32,0.21-0.58,0.11
			c-2.23,1.38-3.35,3.93-4.62,6.27c-0.11,0.16,0.16,0,0.11,0.21c-2.12,4.35-3.29,8.98-3.93,13.97c-0.21,0.32,0,1.06-0.27,1.43
			c0,0.11,0,0.27,0.05,0.32c-0.21,1.7-0.37,2.97-0.37,4.41c0.16,3.13,0.69,7.28,2.87,8.76c0.16,0.11,0.42,0.11,0.64,0.37
			c0.27,0,0.48,0.05,0.8,0.16c0-0.05,0.16-0.05,0.27-0.05c1.81-0.96,3.08-2.39,4.3-3.93c0.05,0,0.05-0.05,0.16-0.05
			c0.58-0.85,1.27-1.54,1.81-2.5c0.05-0.05,0.11-0.16,0.16-0.05c-0.05-0.42,0.58-0.58,0.53-0.96c0.74-1.06,1.49-2.02,2.18-3.29
			c1.01-1.33,1.97-2.87,2.87-4.3c0.11,0.05,0,0.42-0.05,0.64c0.05,0.27,0.05-0.16,0.16-0.05c0.05,0.16-0.27,0.48,0,0.53
			c0,0.21-0.16,0.32-0.16,0.53c0,0.05,0.05-0.05,0.11,0c-0.21,0.96-0.27,2.13-0.69,2.97c0.48,0.64-0.53,1.43-0.37,2.12
			c-0.58,1.28-1.06,2.23-1.75,3.4c-0.05,0-0.11,0-0.11,0.11c0.05,0.05,0.11,0,0.11-0.11c0.05,0,0.05-0.11,0.16-0.11
			c-1.49,2.34-3.08,4.62-5.52,5.95c-0.05,0.11-0.11,0.21-0.16,0.27c-0.32,0.11-0.53,0-0.58,0.16c-1.7,0.58-3.56,0.58-5.31,0.21
			c-1.59-0.74-3.93-1.33-4.67-3.19c-0.16-0.05-0.16-0.21-0.27-0.27c0-0.05,0-0.11,0-0.16c-0.69-1.06-1.12-2.71-1.27-3.77
			c0.05,0,0.05,0,0.05-0.05c0.21,0,0-0.42,0-0.53c-0.11,0.11-0.05,0.32,0,0.53c-0.27-0.21-0.27-0.9-0.27-1.17
			c0.27-0.05-0.11,0.27,0.21,0.32c-0.27-2.92-0.05-6.64,0.42-9.13c0-0.85,0.32-1.96,0.48-2.87c-0.58,4.14-1.38,8.55-0.64,12.59
			c-0.64-8.34,1.11-15.24,3.82-22.25c-0.32,0.21-0.32,0.58-0.53,0.9c0.05-0.58,0.42-1.27,0.74-1.8c0,0.21-0.05,0.21-0.05,0.37
			c-0.05,0.11-0.11,0.16-0.11,0.27c0.11-0.05,0.11-0.11,0.11-0.27c0.32-0.37,0.53-0.85,0.64-1.33c-0.27,0.21-0.32,0.58-0.48,0.96
			c-0.11-0.42,0.48-1.54,0.74-1.75c0,0.21-0.11,0.32-0.27,0.64c0.21,0.05,0.27-0.48,0.53-0.58c-0.05-0.05-0.05-0.05-0.27-0.05
			c0.64-1.54,1.59-2.66,2.34-3.93c0,0,0-0.05,0.11-0.11c0.05-0.05,0.16-0.11,0.21-0.27v-0.05c0.16,0,0.16,0,0.16,0
			c0-0.05-0.16-0.05-0.16,0c0,0,0,0,0,0.05c-0.16-0.05-0.11,0.21-0.21,0.21c0.05-0.48,0.74-0.64,0.69-1.17
			c0.16,0.27,0.27-0.32,0.48-0.37c0-0.11-0.16,0.05-0.11-0.21c1.01-0.16,1.7-0.37,2.81-0.42c1.22-0.37,2.81-0.42,3.88-0.11
			c0.37,0.11,1.06,0.53,1.49,0.85c0.8,0.64,1.49,2.12,1.7,3.35c0.11,0.11,0.27,0.11,0.32,0.32c-0.05,0.05-0.21,0.05-0.11,0.27
			c0.53,1.96,0.05,4.14,0.16,6.16c-0.16,1.49-0.48,3.61-1.97,4.25c-1.06-0.16-2.02-0.48-2.97-1.01c0.05-0.27,0.37-0.16,0.32-0.64
			c0.11,0,0.11,0.05,0.05,0.21c0.32-0.16,0.05-0.53,0.11-0.69C129.27,267.35,129.49,266.5,129.27,266.02z M114.35,280.52
			 M114.51,279.08c-0.21-0.05,0-0.32,0-0.48C114.62,278.76,114.51,278.92,114.51,279.08z M114.56,278.13 M114.56,278.29
			 M114.67,276.8 M114.67,277.01 M114.67,277.49 M114.72,286.84 M114.83,282.11c0,0.27-0.16,0.53,0.05,0.64
			C114.88,282.53,114.93,282.32,114.83,282.11z M114.88,280.62c0,0.37-0.21,0.96,0,1.33C114.88,281.47,114.99,280.83,114.88,280.62z
			 M114.83,283.49c0.05,0.11-0.16,0.48,0.11,0.42C114.83,283.86,114.99,283.54,114.83,283.49z M114.93,284.45
			c-0.21,0.11,0-0.16-0.11-0.16c0.05,0.27-0.11,0.58,0.11,0.48C114.83,284.76,114.93,284.5,114.93,284.45z M114.83,276.37
			 M114.83,286.25c0,0.21,0,0.48,0.11,0.58C114.88,286.52,115.04,286.36,114.83,286.25z M114.88,280.41c-0.16,0.11,0.11,0.11,0.11,0
			C114.93,280.41,114.93,280.36,114.88,280.41z M114.88,285.19c0.05,0,0.05,0.05,0.05,0C114.93,285.14,114.88,285.14,114.88,285.19z
			 M114.93,279.56c0.05,0.16-0.05,0.16,0,0.27C115.04,279.88,115.04,279.56,114.93,279.56z M114.99,275.42
			c-0.11,0.11-0.05-0.05-0.05-0.16C114.93,275.26,114.99,275.37,114.99,275.42z M114.99,278.71c0.16,0.16-0.11,0.32-0.05,0.69
			C115.15,279.24,115.15,278.82,114.99,278.71z M114.93,275.9 M114.93,280.2c0-0.05,0.11-0.05,0.11-0.05
			c-0.05-0.05-0.05-0.05-0.11,0V280.2z M115.15,274.94c-0.21,0.16,0-0.21-0.16-0.21C115.2,274.57,115.04,274.99,115.15,274.94z
			 M114.99,275.1 M114.99,288c0,0.05,0,0.16,0.16,0.16C115.15,288.06,115.04,288.06,114.99,288z M115.04,278.29
			c-0.05,0.16-0.05,0.27,0.11,0.27c0-0.11,0.05-0.11,0-0.27c0.11-0.05-0.11-0.37,0,0C115.04,278.29,115.04,278.29,115.04,278.29z
			 M115.04,287.63 M115.15,283.91c0,0.11-0.16,0.21,0.05,0.27C115.15,284.02,115.31,283.91,115.15,283.91z M115.2,277.44
			c0,0.05-0.21,0.32,0,0.32C115.25,277.65,115.31,277.49,115.2,277.44z M115.2,276.96c0.05,0.21-0.16,0.32,0.05,0.37
			C115.25,277.28,115.36,276.96,115.2,276.96z M115.2,273.82 M115.2,279.67c0,0,0,0.05,0,0.11
			C115.36,279.83,115.36,279.51,115.2,279.67z M115.2,281.42 M115.36,273.61c-0.11,0-0.11-0.11-0.11-0.16
			C115.31,273.45,115.36,273.51,115.36,273.61z M115.36,276.69v-0.11c-0.05,0-0.05,0-0.11,0v0.11
			C115.31,276.69,115.31,276.69,115.36,276.69z M115.31,273.19 M115.31,273.19 M115.31,276.37c0.27,0,0.05-0.16,0.16-0.32
			c0.05-0.05,0.05-0.11,0.05-0.16c-0.16-0.05-0.05,0.05-0.05,0.16C115.31,276.16,115.31,276.27,115.31,276.37z M115.47,277.49
			c0.05,0.27-0.21,0.37,0,0.58C115.47,277.81,115.63,277.59,115.47,277.49z M115.52,274.89c0,0.21-0.16,0.69-0.05,0.96
			C115.57,275.58,115.68,275.05,115.52,274.89z M115.57,273.45c-0.21-0.37,0.11-0.96,0.11-1.33
			C115.94,272.5,115.57,272.97,115.57,273.45z M115.52,272.13 M115.68,276.69c-0.11,0-0.16,0.11-0.16,0.16
			C115.57,276.85,115.63,276.8,115.68,276.69z M115.52,277.01 M115.68,274.57c-0.05,0-0.05-0.11-0.11,0c0.05,0.11,0,0.05,0,0.21
			C115.68,274.89,115.68,274.67,115.68,274.57z M115.68,271.54v0.05h-0.05v-0.05H115.68z M115.68,276.37v-0.05h-0.05v0.05H115.68z
			 M115.68,274.25c0,0-0.11,0.21,0,0.21C115.84,274.41,115.89,274.25,115.68,274.25z M115.84,275.37c0,0.27-0.32,0.8-0.16,0.9
			c0.16-0.37,0.21-0.58,0.21-0.9c0.21,0.05,0-0.16,0,0H115.84z M115.68,271.38 M115.68,274.04 M115.89,273.51
			c-0.05,0.11-0.21,0.32,0,0.42C115.94,273.82,116,273.61,115.89,273.51z M115.94,270.9c0,0.05-0.05,0.05-0.11,0.05
			C115.84,270.9,115.89,270.9,115.94,270.9z M115.84,272.13 M115.89,271.59c0.05-0.16,0.11-0.43,0.11-0.53c0.11,0,0.11,0,0.11,0
			C116.16,271.12,116.1,271.59,115.89,271.59z M116,271.81v0.05c-0.05,0-0.11,0-0.11,0v-0.05
			C115.89,271.81,115.94,271.81,116,271.81z M115.89,275.05 M115.94,274.62c0.16,0.05,0.16-0.21,0.05-0.16
			c-0.05,0-0.05,0.11-0.05,0.11V274.62z M116,272.82c0,0.16-0.11,0.32,0,0.37C116,273.08,116.21,272.87,116,272.82z M116,270.27
			c-0.05-0.05,0-0.11,0-0.16C116.16,270.16,116,270.21,116,270.27z M116,270.53 M116.1,272.71c0-0.16,0.11,0,0.11-0.16
			c-0.05-0.05-0.11-0.05-0.21,0C116,272.55,116,272.71,116.1,272.71z M116.21,270.8c0,0.05-0.11,0.05-0.05,0.27h-0.05
			C116.1,270.9,116,270.74,116.21,270.8z M116.21,270c-0.11-0.11-0.05-0.37,0.05-0.32C116.26,269.79,116.21,269.84,116.21,270z
			 M117.38,267.03c-0.53,1.17-0.64,2.44-1.22,3.61c0.32-1.27,0.69-2.39,1.12-3.72C117.38,266.92,117.27,267.03,117.38,267.03z
			 M116.26,272.23c-0.05,0-0.11,0.11-0.11,0.16C116.21,272.39,116.26,272.34,116.26,272.23z M116.26,272.02
			C116.1,272.07,116.26,272.23,116.26,272.02c0.05,0,0.05-0.16,0-0.21c0.21-0.05-0.05-0.27,0,0
			C116.21,271.81,116.26,271.91,116.26,272.02z M116.42,269.31c0,0.05-0.11,0.05-0.16,0.05
			C116.26,269.31,116.32,269.31,116.42,269.31z M116.48,272.5c0-0.05-0.05-0.11-0.21-0.11c0,0.05,0,0.05,0,0.11
			C116.32,272.5,116.42,272.5,116.48,272.5z M116.53,271.17c0-0.05-0.05-0.11-0.11-0.11l-0.11,0.05
			C116.42,271.12,116.42,271.17,116.53,271.17z M116.42,271.38c0,0-0.16,0.16,0,0.16C116.42,271.49,116.53,271.38,116.42,271.38z
			 M116.53,268.83c-0.05,0-0.05-0.11-0.11-0.11v-0.05C116.53,268.57,116.48,268.73,116.53,268.83z M116.48,270.85
			c0.05,0,0.05,0.05,0.05,0S116.48,270.8,116.48,270.85z M116.53,268.51 M116.53,270.74c0.05,0,0.11,0,0.11-0.11
			C116.58,270.64,116.53,270.64,116.53,270.74z M116.53,271.86 M116.58,271.54 M116.63,268.04 M116.85,267.88
			c-0.05-0.11-0.05,0-0.05,0c-0.05,0,0-0.11,0-0.16C116.85,267.72,116.85,267.77,116.85,267.88z M116.79,269.68
			c0.11-0.05-0.05,0.21,0.05,0.21C116.95,269.84,116.85,269.52,116.79,269.68z M116.79,271.49 M117.17,269.2
			c-0.11,0-0.21,0-0.21,0.05C117.06,269.26,117.17,269.26,117.17,269.2z M116.95,271.86 M117.06,267.13c-0.16,0-0.11-0.16,0-0.16
			C117.22,266.97,116.95,267.03,117.06,267.13z M117.22,266.76c-0.05,0-0.05,0.05-0.05,0.05c-0.11,0-0.11-0.05-0.11-0.11
			C117.22,266.66,117.22,266.71,117.22,266.76z M117.17,266.6 M117.17,268.73 M117.38,266.39c-0.21-0.05,0-0.21,0-0.32
			C117.48,266.12,117.38,266.28,117.38,266.39z M117.43,266.81c-0.16-0.11,0-0.48,0.16-0.64
			C117.59,266.44,117.48,266.6,117.43,266.81z M117.48,265.54c0.11,0,0.05,0.16,0,0.21C117.48,265.7,117.48,265.65,117.48,265.54z
			 M117.48,265.75 M118.07,264.8c0,0.42-0.32,1.01-0.48,1.38C117.59,265.7,117.86,265.17,118.07,264.8z M117.75,265.17
			c-0.16,0-0.05-0.16,0-0.27C117.86,265.01,117.75,265.17,117.75,265.17z M117.75,267.08 M117.86,266.66
			c0.05-0.05,0.05-0.05,0.05-0.16c0.11-0.05,0-0.05,0,0C117.8,266.39,117.8,266.66,117.86,266.66z M118.01,264.43 M118.01,264.43
			 M118.17,265.86c-0.11-0.05-0.16,0.27-0.05,0.32C118.12,266.12,118.12,266.02,118.17,265.86z M118.07,264.21 M118.23,265.7
			c0-0.05,0-0.16-0.11-0.05c0,0.05,0,0.11,0.05,0.11C118.17,265.75,118.17,265.7,118.23,265.7z M118.33,263.58
			c0-0.11,0.05-0.11,0.05-0.27C118.55,263.31,118.49,263.58,118.33,263.58z M118.55,262.94 M118.71,264.53c0,0,0.05,0,0.05-0.05
			C118.71,264.48,118.71,264.48,118.71,264.53z M118.81,262.51c0.16,0,0,0.16-0.05,0.27C118.71,262.57,118.76,262.57,118.81,262.51z
			 M118.76,262.78 M119.08,262.25c-0.21-0.05-0.05-0.21-0.05-0.27C119.13,261.88,119.02,262.14,119.08,262.25z M118.97,261.66
			 M118.97,276.85 M119.13,263.42 M119.29,261.4c0.11,0.11,0,0.27-0.11,0.32C119.13,261.61,119.18,261.5,119.29,261.4z
			 M119.18,261.72 M119.45,261.24c-0.11-0.05,0.05-0.32,0.16-0.37C119.71,260.92,119.5,261.08,119.45,261.24z M119.61,262.3
			c0,0.05-0.16,0.16,0,0.21C119.61,262.46,119.66,262.35,119.61,262.3z M119.66,260.71c0.05-0.16,0.16-0.37,0.37-0.42
			C119.93,260.39,119.93,260.71,119.66,260.71z M120.4,260.12c-0.11,0.16-0.16,0.27-0.27,0.53c-0.16,0.05-0.16,0.21-0.16,0.37
			c0.11-0.05,0.11-0.27,0.16-0.37C120.35,260.55,120.35,260.39,120.4,260.12c0.05,0,0.05,0,0.05-0.05c0.11,0,0.16-0.05,0.16-0.11
			c-0.16,0-0.16,0.05-0.16,0.11C120.4,260.07,120.4,260.12,120.4,260.12z M120.03,260.28c0-0.27,0.11-0.37,0.27-0.53
			C120.25,259.96,120.14,260.12,120.03,260.28z M120.35,259.59c0.11,0,0,0.16-0.05,0.16C120.3,259.64,120.3,259.59,120.35,259.59z
			 M120.46,259.17c0,0.16-0.05,0-0.11,0.16C120.35,259.17,120.4,259.17,120.46,259.17z M120.62,259.17c0,0,0,0.16-0.05,0.16
			C120.56,259.17,120.56,259.17,120.62,259.17z M120.56,259.38v-0.05V259.38z M120.56,259.38 M120.62,259.17
			c0.05-0.37,0.27-0.53,0.42-0.74C120.99,258.74,120.78,258.95,120.62,259.17z M120.62,259.8 M120.78,259.38
			c0,0.11-0.11,0.05-0.05,0.21C120.78,259.64,120.94,259.38,120.78,259.38z M121.2,259.01c-0.27,0-0.27,0.11-0.27,0.32
			C121.2,259.33,121.04,259.06,121.2,259.01z M121.04,258.42c0.27-0.37,0.58-0.74,0.8-1.06c0,0,0,0,0.05,0
			C121.63,257.73,121.41,258.16,121.04,258.42z M121.2,258.79 M121.36,258.69 M121.63,258.48c0-0.05,0-0.05,0-0.11
			c-0.05,0-0.11,0-0.11,0c0,0.05,0,0.05,0,0.11C121.52,258.48,121.57,258.48,121.63,258.48z M121.73,258.05
			c0.11,0.11-0.11,0.16,0,0.16C121.73,258.21,121.89,258.05,121.73,258.05z M122.16,257.15c-0.11,0-0.11,0.05-0.11,0.11
			c-0.05,0-0.11,0-0.16,0c0.05-0.05,0.05-0.21,0.27-0.16V257.15z M121.89,257.26c0,0,0,0,0,0.11V257.26z M121.89,258 M121.94,257.79
			c0.11,0.05,0.11-0.21,0.05-0.11c0,0,0,0.05-0.05,0C121.94,257.73,121.94,257.73,121.94,257.79z M122.16,256.78
			c0,0.05-0.11,0.11-0.16,0.11C122,256.83,122.05,256.78,122.16,256.78z M122,256.88 M122.26,256.62 M122.26,256.62 M122.37,256.3
			c0.16-0.05,0.16-0.05,0.27-0.05C122.58,256.3,122.58,256.3,122.37,256.3z M122.37,257.2 M122.64,256.51c0,0.11-0.11,0.21,0,0.21
			C122.64,256.62,122.69,256.51,122.64,256.51z M122.79,256.46C122.95,256.46,122.79,256.19,122.79,256.46
			C122.69,256.46,122.79,256.51,122.79,256.46z M123.11,255.5 M128.05,256.62c0,0.11-0.05,0.16,0.05,0.16
			C128.11,256.72,128.05,256.62,128.05,256.62z M128.32,256.94c0-0.05,0.05-0.05,0.05-0.05c-0.05,0-0.11-0.05-0.11-0.05
			c0,0.05,0,0.05,0,0.11H128.32z M128.64,257.84c-0.05-0.11-0.27-0.27-0.05-0.42C128.64,257.52,128.64,257.68,128.64,257.84z
			 M129.01,267.88 M129.06,257.79 M129.22,261.08 M129.22,266.5 M132.14,281.95 M132.46,287.1c0,0.05,0,0.05,0,0.11
			c-0.05,0-0.05,0-0.11,0C132.35,287.15,132.41,287.1,132.46,287.1z M132.41,287.1c0.05-0.11,0.11-0.21,0.16-0.27
			C132.57,286.99,132.57,287.1,132.41,287.1z M132.57,286.84c0-0.05,0.11-0.11,0.11-0.16h0.05
			C132.73,286.73,132.73,286.84,132.57,286.84z M132.88,286.46c-0.05,0.05-0.05,0.27-0.16,0.21
			C132.78,286.57,132.78,286.46,132.88,286.46z M133.79,260.65c-0.05,0-0.11,0-0.11,0C133.73,260.65,133.79,260.65,133.79,260.65z
			 M134.69,281.9c-0.05,0-0.05-0.16-0.05-0.21C134.8,281.63,134.69,281.79,134.69,281.9z M134.74,278.13"/>
		<path d="M134.05,278.13c-0.11,0-0.11,0-0.11,0.05c-0.05,0-0.05-0.11-0.05-0.27C133.95,277.91,133.95,278.07,134.05,278.13z
			 M153.54,283.06c-0.21,1.75-0.27,3.93-0.48,5.42c-0.05,0-0.11,0.11-0.05,0.27c0,0.16,0.16-0.11,0.05-0.27
			c0.16,0.16,0,0.53,0.11,0.64c-0.27-0.11,0.05,0.48-0.21,0.64c0.05,0.11,0.05,0.11,0.11,0.16c-0.11,1.01-0.05,2.28-0.21,3.5
			c-0.21,0-0.11,0.32-0.21,0.32c0,0.11,0.11,0.05,0.11,0c0,0.16-0.05,0.27,0,0.48c-0.16,0-0.11,0.42-0.05,0.42
			c0.05-0.11-0.05-0.21,0.05-0.42c0.21,0.16-0.05,0.64-0.05,0.9c0.05-0.05,0.05-0.16,0.16-0.27c0.11,0,0.11,0.21,0.11,0.42
			c-0.05,0-0.05-0.16-0.11-0.16c-0.11,0.96-0.11,1.97,0.42,2.82c-0.05,0.27-0.32,0.27-0.27,0.58c-0.11,0.11-0.16-0.16-0.27-0.16
			c-0.05,0.32-0.42,0.11-0.53,0.32c-0.96-0.11-2.5-0.05-2.81-1.17c0.05,0,0-0.11,0,0c-0.05,0-0.05,0-0.16-0.11
			c0.16-0.05,0-0.16,0.16-0.21c-0.32-1.7-0.53-3.77-0.32-5.68c0-0.21-0.21-0.37,0.11-0.37c-0.27,1.65,0.21,3.5,0.05,4.83
			c0,0.05,0,0.05,0.11,0.05c0.16,0.53,0.11,1.17,0.42,1.59c-0.42-1.81-0.32-3.77-0.32-5.68c0-0.69,0.05-1.27,0.05-1.96
			c0-0.21-0.05-0.37-0.05-0.58c0-0.27,0.11-0.42,0.11-0.74c0-0.16-0.05-0.27-0.05-0.37c-0.05-0.58,0.16-1.38,0.16-1.91
			c0.05-1.38,0.21-2.66,0.11-3.93c0-0.05,0.11,0,0.21-0.05c-0.32-0.48,0.11-1.06,0.05-1.43c0.05,0.05,0.05-0.11,0.05-0.16
			c-0.05,0-0.05,0.05-0.05,0.16c-0.32-0.21,0.37-0.58-0.05-0.64c-0.27,0.8-0.21,2.23-0.48,3.24c0-0.16,0-0.27,0-0.32
			c-0.05-0.05-0.05,0.32,0,0.32c-0.11,0.05,0.16,0.11,0,0.16c-0.27-0.74,0.37-1.81,0.16-2.44c0.05-0.27,0.11-0.64,0.11-0.96
			c-3.29,0.48-6.32,0.69-9.56,1.12c-0.32,1.65-0.58,3.19-1.22,4.73c-0.42,1.65-0.69,4.04-1.01,5.68c0,0.11,0.05,0.05,0.05,0.11
			c0,0.27-0.11,0.37-0.16,0.64c-0.16,0-0.16-0.11-0.16-0.16c-0.16,0.21-0.74,0-1.06,0.16c-0.27-0.05-0.05-0.11-0.32,0
			c-0.27-0.27-0.58-0.16-1.11-0.37c0-0.11-0.05-0.21-0.16-0.32c-0.27,0.21-0.48-0.11-0.64-0.05c0.16-0.27,0-0.69,0.32-0.64
			c-0.05-0.53,0.42-0.64,0.27-1.22c0.05,0,0.05,0,0.16,0c0-1.54,0.58-2.5,0.64-3.88c0.37,0.37-0.16,1.06-0.11,1.65
			c-0.16,0.37-0.21,0.85-0.27,1.33c0.32-0.96,0.53-2.39,0.74-3.66c-0.11,0.16-0.05,0.32-0.16,0.53c-0.21-0.11,0.05-0.48,0.05-0.74
			c0.05,0,0.05-0.05,0.05-0.05c0.05,0,0.05,0.05,0.05,0.11c0.16-0.05,0-0.37,0.21-0.37c-0.05-0.11-0.27,0.05-0.27-0.11
			c0.21-0.48,0.16-0.64,0.27-1.22c0.21,0,0.11,0.11,0.21,0.16c0.16-0.48,0.37-1.01,0.37-1.65c0.16-0.16,0.16-0.42,0.27-0.69
			c-0.27,0.05-0.27,0.32-0.27,0.69c-0.05,0.16-0.05,0.37-0.21,0.53c0.05-0.32,0.16-0.9,0.27-1.27c-0.27-0.05-0.64-0.16-1.01-0.16
			c-0.16-0.05,0.05-0.11-0.05-0.21c-0.11,0.05,0,0.21-0.21,0.16c-0.11-0.11,0.11,0,0.05-0.27c-0.42-0.37-1.27-0.74-1.27-1.33
			c-0.37-0.32-0.48-0.74-0.58-1.27c0.64-0.32,0.8,0.85,1.54,0.48c0.05,0.05,0.05,0.11,0.05,0.16c0.42-0.27,0.74,0.21,1.06-0.16
			c0.05,0.05,0,0.16,0.11,0.21c0.21-0.42,0.74-0.37,1.33-0.37c0.27-0.9,0.53-1.86,0.85-2.87c0-0.11-0.05-0.11-0.05-0.16
			c0.05-0.53,0.21-0.9,0.37-1.38c0.16,0.21-0.16,0.42-0.16,0.64c-0.05,0,0,0.16,0,0.16c-0.11,0.05-0.11,0.16-0.11,0.32
			c-0.05,0-0.05,0.16-0.05,0.27c0.05,0,0.05-0.16,0.05-0.27c0.27,0.11,0.05-0.21,0.11-0.32c0.16,0,0-0.05,0-0.16
			c0.27-0.16,0.32-0.53,0.42-0.96c-0.16-0.05,0,0.21-0.21,0.11c0.11-0.27,0.05-0.53,0.27-0.8c0.05,0.27,0,0.32,0,0.53
			c0.11-0.16,0.11-0.37,0.16-0.58c-0.05-0.11-0.11,0.05-0.16,0.05c0.32-1.59,1.22-2.92,1.38-4.57c0.16,0.11-0.05,0.27,0,0.37
			c0.32-0.53,0.27-1.27,0.58-1.81c-0.58,0.74-0.74,1.91-1.27,2.71c0.32-0.9,0.74-2.18,1.27-3.08c0.05-0.11-0.21-0.05-0.11-0.16
			c0.74-0.11,1.33-0.27,2.07,0.11c0,0.27-0.11,0.32,0.21,0.27c-0.27,0.37-0.05,0.58-0.16,1.01c-0.05,0-0.05-0.11-0.11-0.11
			c-0.21,0.11,0.11,0.05,0.05,0.21c-0.05,0-0.05,0-0.11,0c-0.16,0.64-0.53,0.9-0.58,1.49c0.69-1.17,1.27-2.44,1.97-3.56
			c0.27,0.05,0.16-0.69,0.53-0.69c0-0.32,0.27-0.85,0.64-0.96c0-0.16,0-0.21,0-0.32c0.05,0,0.11,0,0.16,0c0-0.11,0-0.16,0-0.27
			c0.64-0.96,1.22-2.07,1.91-3.03c0.16,0,0.16-0.11,0.27-0.05c0.05-0.16-0.05-0.16-0.05-0.32c0.53-0.27,0.69-1.01,1.17-1.06
			c-0.16-0.27,0.11-0.37,0.16-0.53c0-0.16-0.11-0.05-0.27-0.05c0.21-0.27,0.48-0.42,0.8-0.64c0,0.11-0.05,0.11-0.05,0.27
			c-0.21,0.05-0.32,0.16-0.48,0.27c0.21,0.11,0.48-0.11,0.48-0.27c0.05,0,0.11,0,0.11,0c0.27-0.58,0.85-0.85,1.27-1.22
			c0.05,0,0-0.05,0,0c-0.27,0-0.27,0.21-0.37,0c0.05-0.21,0.37-0.21,0.42-0.37c1.86,0.32,4.2,0.37,4.09,2.81
			c0.05,0,0.05-0.16,0.11-0.16c0.16,1.43,0.21,2.92,0,4.41c0,0.05,0.16,0.05,0.16,0.11c0,0.32-0.16,0.9,0,1.11
			c-0.48,2.71-0.48,5.2-1.12,8.13c0,1.38-0.37,2.55-0.37,3.77c0.32-0.05,0.69-0.11,1.22-0.11c0.27,0.42,1.22-0.05,1.38,0.42
			c0.48-0.16,1.17-0.11,1.54,0.27c0.16,0,0-0.11-0.05-0.21c0.11-0.05,0.32,0.11,0.42-0.05c0,0.16,0,0.27,0,0.32
			c0.21,0.05,0-0.27,0.16-0.27c0.11-0.05,0.11,0.11,0.32,0c-0.21,0.21-0.32,0.27-0.16,0.53c-0.16,0-0.11-0.11-0.21-0.11
			c-0.16,0.05,0.05,0.11,0,0.32c-0.48,0.21-0.9,0.11-1.38,0.53c-0.32-0.16-0.64,0.16-0.74,0c-0.32,0.21-0.85,0.42-1.17,0.32
			c-0.05,0.27,0.42-0.05,0.32,0.21c-0.64,0.27-1.38,0.05-1.81,0.53c-0.21,1.33-0.21,2.71-0.48,3.93h-0.05
			C153.6,283.49,153.65,283.17,153.54,283.06z M134.37,277.86c0,0.05-0.11,0.05-0.11,0.05S134.37,277.91,134.37,277.86z
			 M134.8,289.92c0,0.16,0,0.27,0,0.32h-0.05c0-0.05,0-0.16,0-0.32H134.8z M134.8,289.54 M135.22,288v0.05c-0.05,0-0.05,0-0.16,0
			V288C135.17,288,135.17,288,135.22,288z M135.33,287.21 M135.43,287.74 M136.07,285.19 M136.13,284.98 M136.39,284.55
			c-0.05,0.05-0.11,0.05-0.11,0.21C136.39,284.82,136.6,284.55,136.39,284.55z M136.5,283.81c0.11,0.16-0.16,0.21,0,0.32
			C136.5,284.02,136.76,283.81,136.5,283.81z M136.6,283.22c-0.11-0.21,0.16-0.32,0.05-0.48
			C136.76,282.64,136.76,283.28,136.6,283.22z M137.93,278.29 M137.98,278.07c0.21-0.58,0.21-1.06,0.42-1.27
			C138.3,277.22,138.25,277.59,137.98,278.07z M137.98,278.18 M138.3,276.53c0.32-0.05,0.11-0.69,0.53-0.8
			c-0.16,0.32-0.21,0.74-0.42,1.06C138.41,276.69,138.36,276.59,138.3,276.53z M139.63,271.59 M139.9,272.5
			c-0.11-0.05-0.27,0.32-0.11,0.37C139.9,272.76,139.84,272.71,139.9,272.5z M139.9,270.8c-0.05-0.27,0.21-0.58,0.27-0.9
			C140.27,270.27,139.95,270.53,139.9,270.8z M140.16,271.59c-0.16,0.21-0.27,0.48-0.27,0.74
			C140.11,272.18,140.11,271.91,140.16,271.59z M139.95,270.9 M140.27,271.06c0,0.11-0.16,0.37-0.05,0.42
			C140.27,271.43,140.43,271.17,140.27,271.06z M140.59,270.43c-0.05,0.11-0.16,0.21-0.16,0.32
			C140.59,270.8,140.64,270.48,140.59,270.43z M140.75,270.21c0.05,0,0.11-0.21,0-0.21C140.75,270.11,140.75,270.16,140.75,270.21
			C140.59,270.27,140.75,270.27,140.75,270.21z M140.75,269.15 M140.8,269.79c0.05,0,0.11,0,0.11-0.11
			C140.85,269.68,140.8,269.68,140.8,269.79z M141.06,269.05c0,0.21-0.16,0.21-0.11,0.32C141.06,269.36,141.22,269.05,141.06,269.05
			z M141.22,268.51c0,0.16-0.05,0.21-0.05,0.37C141.28,268.94,141.38,268.57,141.22,268.51z M151.9,259.33
			c-1.38,1.22-2.39,2.87-3.5,4.25c-0.9,1.96-2.23,3.56-3.08,5.74c-0.11,0-0.11,0.27-0.27,0.27c0,0.42-0.11,0.69-0.37,0.85
			c0,0.05,0,0.16,0,0.21c-0.05,0-0.11,0-0.27,0c-0.11,0.85-0.58,1.7-0.96,2.34c0.16,0,0.05,0.16,0.05,0.21
			c-0.8,1.27-1.06,2.97-1.91,4.14c0,0.48-0.16,0.8-0.37,1.11c0-0.05-0.05,0.05,0,0c0,0.05,0,0.11,0,0.16
			c0.32,0.11,0.27-0.16,0.53-0.16c0.16,0.27,0.64,0,1.06,0.05c0.05,0-0.05-0.27,0.16-0.21c0,0.11-0.11,0.11-0.11,0.16
			c0.21,0,0.53,0,0.74-0.05c0.05-0.21-0.21-0.11-0.21-0.21c0.05,0,0.32-0.11,0.32,0c0,0-0.05,0.11-0.05,0.21
			c0.27-0.11,0.37,0,0.69-0.11c-0.05-0.16,0-0.37,0.27-0.21c0,0.11-0.21,0.05-0.21,0.16c0.27,0,0.48,0,0.58,0
			c0.05-0.32-0.27,0.05-0.27-0.16c0.16-0.16,0.16-0.16,0.32-0.16c0,0.16,0,0.21,0,0.27c0.37,0,0.53,0,0.69,0
			c0-0.11,0-0.37,0.21-0.37c0.11,0.11,0,0.11,0,0.37c0.32-0.05,0.42-0.32,0.69-0.42c0.05,0.16-0.11,0.11-0.05,0.32
			c0.37,0.05,0.53-0.16,1.06-0.21c0-0.05,0.16-0.37,0.27-0.27c0,0.21-0.16,0.05-0.16,0.27c0.37-0.05,0.64,0,1.01-0.05
			c0.11-0.27-0.48,0.05-0.32-0.21c0.37-0.05,0.64-0.11,0.9-0.05c0,0.21-0.48,0-0.48,0.27c0.32-0.16,0.9,0,1.22-0.21
			c-0.32-0.11-0.69,0.16-0.69-0.11c0.64,0.11,0.58-0.32,0.69-0.58c0.21,0.21-0.21,0.37,0.05,0.42c0.16,0-0.05-0.37,0.21-0.37
			c0,0.16-0.05,0.53,0,0.37c0-0.32,0.27-0.64,0.11-0.96c-0.11,0.11-0.05,0.42-0.16,0.48c0.05-0.8,0.11-1.59,0.32-2.28
			c0.05,0.11,0.05,0.32,0.11,0.37c0.05-0.16,0.05-0.37,0-0.53c-0.05,0-0.11,0.05-0.11,0c0.05-0.27-0.11-0.74,0.16-0.8
			c0.16,0.05-0.27,0.53,0,0.64c0.05-0.32,0.16-0.48,0.16-0.9c-0.16,0-0.16,0.05-0.21-0.05c0.11-0.16-0.11-0.48,0.11-0.58
			c0.11,0.16-0.05,0.27,0.11,0.37c0-0.11,0.32-0.74-0.11-0.74c0.11-0.8,0.48-1.59,0.27-2.12c0,0.11-0.05,0.27-0.11,0.27
			c0.05-0.64,0.11-1.27,0.37-1.96c0,0.48-0.32,1.33,0.05,1.65c-0.11-0.8,0-1.27,0.05-1.91c-0.16-0.16,0,0.11-0.11,0.11
			c-0.05-0.11,0-0.42,0.05-0.58c0.16,0.11,0,0.27,0.21,0.21c0-0.21,0-0.32,0.05-0.53c-0.27-0.05-0.05,0.32-0.27,0.27
			c0.48-2.71,0.85-5.42,1.17-8.02c-0.27,0.21-0.16,0.74-0.37,1.01c-0.11-0.27,0.16-0.64,0-0.8c0,0.05-0.16,0.16-0.16,0.05
			c0-0.32,0-0.21,0-0.53h0.05c0-0.11,0-0.27-0.11-0.27c0,0.21,0.05,0.21,0.05,0.27C151.95,259.59,152,259.33,151.9,259.33z
			 M141.28,267.98c0,0.05-0.05,0.11,0,0.11C141.28,268.04,141.44,267.98,141.28,267.98z M141.49,278.44c0.05,0.11-0.21,0.11-0.11,0
			C141.44,278.39,141.44,278.44,141.49,278.44z M142.13,278.39 M142.39,270.64 M142.45,278.44 M142.66,269.79
			c0,0.11-0.11,0.11,0.05,0.21C142.76,270,142.82,269.68,142.66,269.79z M143.08,267.98c0,0.32-0.37,0.58-0.27,0.96
			C142.82,268.57,143.4,268.25,143.08,267.98z M143.03,270c0,0,0-0.11,0-0.16c-0.05,0-0.05,0-0.16,0c0,0.05,0,0.16,0,0.16
			C142.98,270,142.98,270,143.03,270z M143.4,278.23c0,0.16-0.42,0.16-0.37-0.05C143.29,278.23,143.29,278.23,143.4,278.23z
			 M143.35,269.31 M143.4,268.89 M143.72,267.61c-0.11,0-0.11-0.21-0.05-0.27C143.77,267.35,143.72,267.56,143.72,267.61z
			 M143.83,268.83 M144.09,278.13c0,0.11-0.05,0.05-0.16,0.05c0.05,0,0.05,0,0.05-0.05C144.04,278.13,144.04,278.13,144.09,278.13z
			 M144.09,266.6 M144.14,278.07 M144.36,266.39c-0.21,0.05-0.11-0.05-0.11-0.21C144.3,266.28,144.36,266.34,144.36,266.39z
			 M144.3,267.4 M144.36,266.12 M144.41,265.81 M144.73,265.81c-0.11,0-0.11-0.11-0.11-0.27
			C144.78,265.49,144.68,265.7,144.73,265.81z M144.73,266.02 M145.31,264.53c0,0.16,0,0.16,0,0.21h-0.05c0-0.05,0-0.05,0-0.21
			H145.31z M145.42,278.13c-0.11,0-0.16,0-0.16-0.27C145.31,277.91,145.42,277.91,145.42,278.13z M145.58,264.27
			c-0.05,0.21-0.21-0.16-0.05-0.16C145.58,264.16,145.53,264.27,145.58,264.27z M145.68,263.95c0,0.11,0,0.21,0,0.27
			c-0.11,0.05-0.05-0.11-0.16-0.11C145.58,264.05,145.58,263.89,145.68,263.95z M145.63,277.86c0,0,0,0.05,0,0.21
			c-0.05,0-0.05-0.16-0.11-0.16c0,0,0,0,0-0.05C145.58,277.86,145.58,277.86,145.63,277.86z M145.95,263.73 M146.06,263.31
			 M146.27,277.91c-0.27,0.16-0.11-0.27,0-0.05V277.91z M146.32,262.88c0,0.05,0.05,0.05,0.05,0.05c-0.11,0,0,0.37-0.16,0.27
			c-0.05-0.11,0.05-0.21,0.05-0.32H146.32z M146.32,267.77c0,0.11-0.05,0.11-0.11,0.11C146.22,267.77,146.27,267.77,146.32,267.77z
			 M146.53,262.83c0,0.05-0.05,0.05-0.16,0.05C146.37,262.83,146.48,262.83,146.53,262.83z M146.53,262.67c0.05,0,0-0.21,0.11-0.16
			C146.64,262.62,146.64,262.78,146.53,262.67z M146.53,265.33 M146.69,262.35c0,0,0-0.05,0-0.11
			C146.85,262.19,146.85,262.51,146.69,262.35z M146.85,277.75c0,0.05,0,0.05,0,0.11c-0.05,0-0.05,0-0.16,0c0-0.05,0-0.05,0-0.11
			C146.8,277.75,146.8,277.75,146.85,277.75z M146.91,262.14c-0.05,0.05-0.05,0-0.11,0c0-0.11,0.05-0.11,0.05-0.16
			C146.91,261.98,146.91,262.04,146.91,262.14z M146.96,261.88 M147.12,277.75c0,0.05-0.11,0.05-0.16,0.05
			C146.96,277.75,147.01,277.75,147.12,277.75z M147.33,261.61c-0.21,0.05-0.05-0.11-0.11-0.27
			C147.33,261.34,147.33,261.5,147.33,261.61z M147.44,261.29h-0.11H147.44z M147.49,277.75 M147.6,261.24
			c-0.16,0-0.11-0.32,0.05-0.27C147.65,261.08,147.54,261.08,147.6,261.24z M147.65,260.87c0-0.16,0.16-0.16,0.11-0.32
			C147.86,260.65,147.86,260.87,147.65,260.87z M147.65,262.51 M148.07,261.03 M148.18,261.72 M148.29,277.75c-0.05,0-0.11,0-0.11,0
			s0-0.11,0-0.16C148.23,277.59,148.29,277.65,148.29,277.75z M148.92,259.38c-0.16,0.27-0.32,0.58-0.69,0.74
			c-0.05-0.21,0.53-0.42,0.53-0.8C148.87,259.33,148.87,259.38,148.92,259.38z M149.03,259.06c0-0.11,0.16-0.05,0.16-0.21
			C149.35,258.95,149.14,259.11,149.03,259.06z M149.03,259.11 M149.51,284.34c-0.27,2.34-0.16,4.73-0.42,6.69
			c0-2.23,0.16-4.57,0.32-6.75C149.45,284.29,149.45,284.34,149.51,284.34z M149.14,294.01 M149.24,291.03c-0.11,0-0.05-0.05,0-0.11
			C149.35,290.93,149.24,290.98,149.24,291.03z M149.24,258.85 M149.24,259.59 M149.35,296.02 M149.51,284.02
			c-0.11,0-0.05,0.16-0.11,0.21c-0.05-0.05,0-0.37,0.11-0.42C149.56,283.86,149.45,283.91,149.51,284.02z M149.45,293.1
			c0,0.05-0.05,0.16,0.05,0.16C149.51,293.26,149.67,293.05,149.45,293.1z M149.51,282.96 M149.51,284.23 M149.67,293.21
			c-0.16,0.16-0.11,0.37,0.05,0.48C149.67,293.53,149.77,293.26,149.67,293.21z M149.67,291.83c-0.11,0.16-0.11,0.32,0.05,0.42
			C149.72,292.09,149.77,291.93,149.67,291.83z M149.72,294.64c0,0.11-0.21,0.21,0,0.37C149.77,294.96,149.77,294.7,149.72,294.64z
			 M149.72,289.38c0,0.16,0,0.27-0.05,0.32C149.88,289.76,149.77,289.44,149.72,289.38z M149.67,289.76c0,0.21,0.11,0.42,0,0.58
			C149.88,290.34,149.77,289.7,149.67,289.76z M149.67,291.14 M149.67,294.01 M149.67,294.43 M149.72,289.07 M149.72,289.38
			 M149.72,295.28 M149.77,287.74c0,0.37-0.11,0.74,0,1.17C149.77,288.48,149.99,288,149.77,287.74z M149.77,285.24 M149.88,285.72
			c0,0.74-0.11,1.27-0.11,1.91C149.99,287.15,150.04,286.15,149.88,285.72z M149.77,291.56c0.11,0,0.21,0,0.21-0.05
			C149.88,291.51,149.77,291.51,149.77,291.56z M149.77,295.81 M149.77,296.08 M149.88,283.17c0.11,0.11-0.11,0.48,0.16,0.48
			C149.88,283.54,150.15,283.22,149.88,283.17z M150.09,285.19c-0.11,0-0.11,0.05-0.21,0.11
			C150.04,285.3,150.04,285.24,150.09,285.19z M150.04,285.56c0-0.05,0-0.11,0-0.16c-0.05,0-0.05,0-0.16,0c0,0.05,0,0.11,0,0.16
			C149.99,285.56,149.99,285.56,150.04,285.56z M149.99,284.55c0,0.27-0.11,0.53,0.05,0.58
			C150.04,284.92,150.2,284.61,149.99,284.55z M150.09,283.22c0,0.42-0.21,0.9,0,1.22C150.04,284.02,150.3,283.54,150.09,283.22z
			 M150.04,281.47c0,0,0.05,0,0.05-0.05C150.09,281.42,150.04,281.42,150.04,281.47z M150.04,282.22c0,0,0.05,0,0.05-0.11
			C150.09,282.11,150.04,282.11,150.04,282.22z M151,257.2c-0.21,0.37-0.64,0.53-0.9,0.9c-0.11-0.42,0.37-0.37,0.53-0.74
			c0.11,0.05,0.16-0.11,0.21-0.21C150.94,257.15,150.94,257.2,151,257.2z M150.09,276.85c0.05-0.37,0.05-0.8,0.11-1.11
			C150.3,276,150.36,276.69,150.09,276.85z M150.15,280.83 M150.15,284.98 M150.3,287.53v-0.05c-0.11,0-0.11,0-0.16,0v0.05
			C150.2,287.53,150.2,287.53,150.3,287.53z M150.2,282.37 M150.2,283.81 M150.3,282.22c0.11-0.16,0.05-0.42,0.05-0.58
			C150.36,281.79,150.2,281.9,150.3,282.22C150.09,282.22,150.36,282.37,150.3,282.22z M150.46,281.15c-0.05,0-0.05-0.05-0.11-0.05
			c0.05,0.32-0.16,0.32,0,0.53C150.41,281.47,150.46,281.37,150.46,281.15z M150.78,272.39c-0.27,1.06-0.32,2.28-0.48,3.35
			c0-1.11,0.21-2.39,0.37-3.4C150.73,272.34,150.78,272.34,150.78,272.39z M150.41,284.55
			C150.46,284.55,150.41,284.55,150.41,284.55C150.2,284.55,150.41,284.82,150.41,284.55z M150.36,280.46
			c0.05,0.05-0.05,0.32,0.05,0.32C150.46,280.73,150.46,280.52,150.36,280.46z M150.41,281.05c0-0.05,0.05-0.05,0.05-0.21
			c-0.05,0-0.11,0-0.11,0c0,0.11,0,0.16,0,0.21H150.41z M150.41,280.3 M150.46,275.84c0,0.11-0.05,0.37,0.05,0.37
			C150.52,276.16,150.68,275.84,150.46,275.84z M150.62,277.33c0-0.05,0-0.11,0-0.21c0.16-0.21-0.11-0.42,0,0
			C150.62,277.17,150.46,277.28,150.62,277.33z M150.62,275.05c0,0.05,0,0.16,0,0.16C150.78,275.37,150.78,274.99,150.62,275.05z
			 M150.78,275.74c-0.11,0.16-0.27,0.74,0,0.8C150.84,276.37,150.84,275.9,150.78,275.74z M150.73,257.04 M150.78,272.18
			c-0.11-0.27,0-0.64,0.05-1.01C150.94,271.49,150.78,271.91,150.78,272.18z M150.84,274.78c0,0.21-0.05,0.48,0.16,0.58
			C150.94,275.21,151,274.94,150.84,274.78z M150.84,283.17 M150.84,283.91 M150.94,271.12c-0.21-0.16,0-0.37,0-0.58
			C151.1,270.59,150.84,270.85,150.94,271.12z M151.58,270.53c-0.21,1.22-0.53,2.81-0.58,4.09
			C151.31,273.19,151.47,271.86,151.58,270.53z M151.1,271.81c-0.11,0-0.11,0.05-0.11,0.21C151.1,272.07,151.26,271.91,151.1,271.81
			z M151.05,280.14 M151.1,270.9c0.16,0.27-0.05,0.48,0,0.69C151.31,271.54,151.31,270.96,151.1,270.9z M151.31,264.43
			 M151.42,268.09 M151.42,269.58 M151.47,264.37 M151.63,267.24 M151.69,269.58c-0.05,0.11-0.05,0.32-0.05,0.58
			C151.74,270.11,151.79,269.68,151.69,269.58z M151.69,261.82 M151.79,265.81c0,0.48-0.11,0.69-0.11,1.11
			C151.79,266.71,152.06,266.07,151.79,265.81z M151.74,269.05c0,0.21-0.11,0.48,0.05,0.53C151.9,269.47,151.79,269.2,151.74,269.05
			z M151.79,267.13c0,0.21-0.11,0.32,0,0.42C151.79,267.45,152.06,267.13,151.79,267.13z M151.79,260.97 M151.79,261.19
			 M151.79,262.25 M151.79,264.16 M151.95,267.98c0.11,0.21-0.21,0.37,0,0.58C151.95,268.41,152.11,268.04,151.95,267.98z
			 M151.95,259.75c-0.16,0,0.05-0.11,0-0.27C152.06,259.59,152,259.75,151.95,259.75z M151.9,263.73 M151.9,263.95 M152,262.88
			h-0.05c-0.05,0,0-0.05,0-0.11C152,262.78,152,262.83,152,262.88z M151.95,259.96 M152.06,262.14c-0.05,0-0.11,0-0.11,0
			C152,262.14,152.06,262.14,152.06,262.14z M151.95,262.62c0.11-0.05,0.05-0.27,0.11-0.32
			C152.11,262.35,152.11,262.67,151.95,262.62z M151.95,266.39c0.05,0.11,0,0.32,0.11,0.27C152.06,266.5,152,266.44,151.95,266.39z
			 M152.22,264.8c-0.27,0,0.05-0.27-0.21-0.27c0.05,0.27-0.11,0.48,0,0.53C152.06,265.01,152.11,264.9,152.22,264.8z M152.11,260.39
			c-0.11,0-0.11-0.11-0.11-0.27C152.11,260.12,152.11,260.28,152.11,260.39z M152,264.37 M152.06,261.88
			c-0.11-0.21,0.16-0.53,0.16-0.69C152.38,261.29,152.11,261.66,152.06,261.88z M152.06,267.03c0,0.11-0.05,0.32,0.16,0.21
			C152.22,267.08,152.11,267.03,152.06,267.03z M152.11,263.95c0,0.16-0.05,0.32,0.11,0.27
			C152.27,264.16,152.22,264.05,152.11,263.95z M152.22,260.97c0,0,0-0.05-0.11-0.05c0,0,0-0.05,0-0.16
			C152.22,260.76,152.22,260.92,152.22,260.97z M152.27,263.52c-0.16,0-0.16,0.05-0.16,0.21
			C152.27,263.79,152.27,263.63,152.27,263.52z M152.22,259.38c0,0.21-0.11,0.27,0,0.37C152.32,259.7,152.38,259.43,152.22,259.38z
			 M152.22,259.11c0.05,0,0.11,0.21,0.11,0C152.32,259.11,152.27,259.06,152.22,259.11z M152.22,261.03 M152.27,262.62
			c0.05,0.16,0,0.27-0.05,0.37C152.43,262.99,152.38,262.67,152.27,262.62z M152.22,264.27c0,0.16,0,0.21,0,0.27
			C152.32,264.74,152.32,264.21,152.22,264.27z M152.32,263.89c0,0.05-0.05,0.16-0.05,0.21
			C152.43,264.16,152.43,263.89,152.32,263.89z M152.27,265.75 M152.27,266.12 M152.32,259.91 M152.32,263.15 M152.59,261.08
			 M152.85,293.58c0.05,0,0.05,0.16,0,0.16c0,0,0,0-0.11,0C152.75,293.69,152.85,293.69,152.85,293.58z M152.85,293.42
			 M152.85,295.92 M152.91,295.6 M153.01,291.3c-0.05,0,0-0.05,0-0.11C153.17,291.19,153.07,291.24,153.01,291.3z M153.17,286.36
			 M153.23,284.76c0,0,0.05,0,0.05-0.16C153.28,284.61,153.23,284.61,153.23,284.76z M153.49,285.83c-0.11-0.74,0.05-1.38,0.05-2.23
			c0.05,0,0.05,0,0.05,0C153.65,284.29,153.54,285.46,153.49,285.83z M153.49,285.83 M153.54,282.69 M156.04,277.22 M156.57,277.28
			 M157.16,277.33c0.05,0.16,0.21,0.16,0.21,0C157.32,277.33,157.16,277.28,157.16,277.33z M157.74,277.33h0.05H157.74z
			 M158.06,277.59"/>
		<path d="M169.9,284.61c0-0.11-0.05-0.05-0.05,0c0.05-0.37,0-0.96-0.11-1.43c-0.11-0.21,0,0.11-0.21,0.05
			c-0.21-0.37,0.27-0.64,0.05-0.85c-0.11,0,0.05,0.32-0.11,0.27c0.05-0.58-0.32-1.22-0.21-1.81c0.27-0.05,0.16-0.48,0-0.53
			c-0.05,0.05,0,0.32,0,0.48c-0.05-0.42-0.27-0.96,0-1.27c0-0.05-0.11-0.05-0.27-0.05c0.21-0.21,0.32-0.64,0.11-0.85
			c0-0.05,0-0.05,0-0.11c-0.11,0-0.11,0.11,0,0.11c-0.11,0.16,0.05,0.32,0,0.58c-0.42-1.27-0.42-3.19-0.74-4.57
			c-0.05-0.21,0.16-0.16,0.16-0.21c-0.05-0.05-0.16-0.11-0.21-0.27c-0.05-1.65-0.32-2.66-0.58-4.35c-0.16-1.27-0.37-2.55-0.69-3.51
			c0-0.11-0.11-0.11-0.16,0c-0.11-0.48-0.21-0.8-0.32-1.11c-2.44,5.05-3.19,13.44-2.71,20.29c0.05,0.16-0.11,0.11-0.11,0.32
			c0.16,1.75,0.32,3.61-1.17,4.14c-1.33,0.16-1.91-0.53-2.87-0.85c0.27-0.27,0.05-0.74,0.05-1.06c0.11-1.17,0.11-2.18,0.11-3.56
			c0-6.21,0.37-12.53,2.02-17.37c0-0.05,0-0.32-0.05-0.16c-0.16-0.11,0.16-0.21,0.32-0.27c0.37-1.54,0.96-2.87,2.02-3.77
			c0.27-0.11,0.64-0.05,1.17-0.11c0.64-0.11,1.38-0.42,1.96-0.32c0.85,0.05,1.22,0.64,1.86,1.01c1.27,1.54,1.86,3.66,1.96,5.36
			c0.74,1.65,0.42,3.08,1.06,4.83c-0.05,0.9,0.11,1.75,0.27,2.6c-0.11,0.9,0.37,1.59,0.37,2.5c0.11,0.16-0.16,0.11-0.11,0.32
			c0.32,2.07,0.64,4.2,1.01,6.32c0.48,0.42,0.32,1.49,0.64,2.12c0.48-1.91,0.58-4.14,0.8-6.37c0.48-4.89,0.8-9.61,1.59-13.7
			c0.32,0.16-0.21,0.58,0,0.96c0.32-0.74,0.42-1.75,0.48-2.66c0.21-0.32,0.32-0.85,0.32-1.33c-0.16-0.05-0.37,0.37-0.11,0.48
			c-0.21-0.05-0.21,0.11-0.16,0.16c-0.05,0.27-0.21,0.69-0.11,1.01c-0.11,0-0.11,0.21-0.11,0.37c-0.21,0.27,0,0.64-0.32,0.96
			c0.53-3.66,1.27-7.33,2.76-10.2c0.11,0,0.16,0,0.21,0.05c0.11-0.05-0.11-0.11-0.05-0.21c0.42-0.53,0.8-1.06,1.91-0.96
			c0.32,0.11,0.9,0.16,0.69,0.69c-0.27,0.05-0.37,0-0.53-0.05c-0.53,0.43-0.69,1.33-0.8,2.13c-0.32,0.8-0.64,1.7-0.32,2.44
			c-0.27,0.27,0,0.85-0.21,1.33c0.05,0.32,0,0.27,0.05,0.53c-0.48,0.96,0.11,1.86-0.21,2.92c0.11,0,0.11-0.21,0.11-0.27
			c0.05,1.22-0.42,2.44-0.27,3.77c-0.27,4.46-0.74,9.67-0.96,14.39c0,0.8-0.42,1.43-0.27,2.23c-0.05,0.16-0.16,0.16-0.16,0.27
			c-0.16,2.18-0.69,4.04-2.07,5.31c-0.42,0.42-1.59,0.32-2.02,0.48c-0.96-0.42-2.34-0.37-2.97-0.96c-0.8-1.11-0.9-2.55-1.27-4.14
			c-0.11-0.27,0.05-0.32,0-0.58c-0.21-0.05,0.11,0.27-0.16,0.21c-0.16-0.85-0.16-1.59-0.37-2.18
			C169.9,284.61,169.9,284.61,169.9,284.61z M167.3,268.73 M168.26,271.49 M168.47,274.04c-0.11,0.05-0.11,0.21,0.11,0.11
			C168.58,274.09,168.52,274.04,168.47,274.04z M168.63,278.23 M168.68,276.8 M169.27,280.83c0.05-0.05,0-0.05,0-0.05V280.83z
			 M169.32,281.05c0.11,0.05-0.05,0.27,0.11,0.32C169.48,281.31,169.53,280.99,169.32,281.05z M169.48,281.79
			c0,0.11-0.05,0.32,0.05,0.32C169.58,281.95,169.58,281.9,169.48,281.79z M169.58,282.91 M169.58,283.54c0-0.05,0-0.16,0-0.27
			C169.8,283.22,169.8,283.6,169.58,283.54z M169.64,283.65 M169.8,284.29c-0.05,0,0-0.11,0-0.16
			C169.85,284.18,169.9,284.23,169.8,284.29z M169.85,282.64 M170.06,285.46 M170.17,285.77c0,0.11,0.05,0.32,0.11,0.37
			C170.38,285.93,170.27,285.83,170.17,285.77z M170.22,286.25 M170.27,286.46 M175.16,284.29 M175.37,282.22
			c-0.11-0.11-0.16,0.21-0.05,0.21C175.37,282.37,175.37,282.27,175.37,282.22z M175.53,279.56c-0.16,0.21-0.21,0.42-0.16,0.64
			C175.64,280.14,175.64,279.67,175.53,279.56z M175.37,281.31 M175.64,277.75c0,0.37-0.32,0.64,0,0.85
			C175.58,278.29,175.8,278.07,175.64,277.75z M175.53,278.76c0,0.27,0,0.48,0,0.74C175.58,279.24,175.69,278.82,175.53,278.76z
			 M175.64,280.36v-0.05c-0.05,0-0.05,0-0.11,0v0.05C175.58,280.36,175.58,280.36,175.64,280.36z M175.69,277.65
			c0.16-0.74,0.21-1.43,0.27-2.28c0.05-0.11,0-0.16-0.05-0.16c0,0.05,0.05,0.05,0.05,0.16
			C175.69,275.68,175.64,277.22,175.69,277.65z M175.69,278.55 M175.96,274.09c-0.05,0.16-0.11,0.8,0,0.85
			C175.96,274.62,176.22,274.3,175.96,274.09z M175.96,274.94 M176.49,269.84c-0.16,1.28-0.53,2.71-0.37,3.98
			C176.28,272.71,176.54,270.96,176.49,269.84z M176.49,269.36c0,0.16,0,0.53,0.16,0.48c-0.05-0.16-0.05-0.21-0.05-0.37
			c0.05,0,0.05,0,0.16,0c-0.16-0.42,0.21-0.8-0.11-1.11c0.11,0.48-0.16,0.69-0.05,1.11C176.54,269.47,176.54,269.36,176.49,269.36z
			 M176.97,270.85c0,0,0.11,0,0.11-0.05C177.07,270.8,176.97,270.8,176.97,270.85z M177.28,265.81c0.11,0,0.11,0.05,0.11,0
			S177.28,265.75,177.28,265.81z M177.6,264.11c0.11-0.16-0.05-0.16-0.05-0.21c0.16,0,0.16-0.11,0.21-0.16
			c-0.16-0.11-0.16,0.05-0.21,0c0.05-0.21,0.21-0.21,0.27-0.32c-0.32-0.27,0.27-0.74-0.05-0.85c0,0.58-0.48,1.22-0.21,1.65
			C177.55,264.16,177.55,264.11,177.6,264.11z M177.71,264.27c0.05,0,0.11,0,0.11-0.05C177.76,264.27,177.71,264.21,177.71,264.27z
			 M178.19,260.97c-0.11,0.53-0.37,1.17-0.37,1.54C178.08,262.19,178.35,261.4,178.19,260.97z M178.19,263.73 M178.35,260.65
			c0.05,0,0.05,0.05,0.05,0C178.4,260.55,178.35,260.55,178.35,260.65z M178.4,260.87v-0.11h-0.05v0.11H178.4z M178.67,259.91
			c-0.21,0-0.16,0.21-0.27,0.42C178.56,260.28,178.51,259.96,178.67,259.91z M178.4,261.03 M178.77,259.33
			c-0.05,0.05-0.21,0.32-0.05,0.37C178.72,259.59,178.98,259.33,178.77,259.33z M178.77,259.11c0.21,0.05,0.21-0.05,0.11-0.27
			c0.21-0.16-0.05-0.37,0,0C178.77,258.85,178.88,259.11,178.77,259.11z M178.82,260.76 M179.14,258.32 M180.05,266.5
			C180.1,266.28,179.94,266.44,180.05,266.5C180.1,266.6,180.1,266.5,180.05,266.5z M180.05,265.01 M180.26,261.34
			c0,0.05,0,0.16,0,0.21C180.42,261.61,180.42,261.29,180.26,261.34z M180.47,261.29c0-0.05,0-0.05,0-0.11c-0.05,0-0.05,0-0.11,0
			c0,0.05,0,0.05,0,0.11C180.42,261.29,180.42,261.29,180.47,261.29z"/>
		<path d="M213.45,281.9c0.05,0,0,0.16,0,0.32c0.21-0.48,0.48-0.9,0.32-1.38c0.16,0,0.16,0.11,0.21,0.16
			c0.11-0.21-0.05-0.27-0.05-0.53c0.53-1.59,0.8-3.24,1.49-4.83c0.11,0.32-0.11,0.37-0.05,0.64c0.32,0,0.37-0.64,0.37-1.06
			c0-0.21,0.11,0.05,0.16-0.11c0-0.32,0.16-0.69,0.32-0.96c0-0.21-0.05-0.64,0.27-0.64c-0.16-0.37,0.21-0.64,0.11-1.01
			c0.27,0,0-0.37,0.32-0.32c0-0.27,0-0.42,0.05-0.58c0.05,0,0.16,0,0.16-0.05c0-0.05-0.11,0-0.16,0.05
			c-0.05-0.43,0.58-1.01,0.27-1.43c-0.21,0.05,0,0.58-0.21,0.48c-0.11-0.48,0.42-1.01,0.48-1.65c0,0,0.05,0,0.16,0
			c-0.11-0.8,0.58-1.75,0.85-2.6c0.05,0.58-0.42,1.22-0.42,1.65c0-0.05-0.11,0-0.11,0c-0.32,0.48-0.11,0.85-0.21,1.27
			c-0.32,0.05,0.11-0.11-0.11-0.16c-0.32,0.11-0.32,0.53-0.42,0.96c0.42,0.11,0.32-0.74,0.64-0.85c0.05-0.21,0-0.27,0.05-0.53
			c0.16,0.11,0.16-0.21,0-0.16c0-0.16,0.05-0.27,0.21-0.21c0.16-0.9,0.69-1.54,0.74-2.28c0-0.21,0.27-0.05,0.27-0.21
			c0-0.32,0.21-0.8,0.53-0.96c0.05-0.64,0.69-1.38,0.8-1.96c0.32-0.37,0.53-0.8,0.8-1.43c0.16-0.16,0.21-0.27,0.32-0.48
			c-0.16-0.11-0.11,0.27-0.32,0.16c0.05-0.16,0.11-0.32,0.21-0.21c0-0.64,0.74-1.01,1.11-1.33c0.8,0,1.59,0.27,2.34,0.32
			c0.21,0.05,0.27,0.32,0.58,0.27c0.9,0.64,1.22,1.59,1.22,2.76c0,0.64-0.21,1.22-0.21,1.7c-0.05,0.85,0.27,1.65-0.11,2.34
			c0.05,2.76-0.32,5.36-0.58,8.07c-0.11,0.8-0.11,1.7-0.27,2.5c-0.27,4.3-0.48,8.66,0,13.38c0.32,1.22,0.53,2.71,1.81,3.03
			c0.05,0.42,0.37,0.64,0.74,0.74c0,0.21-0.16,0.32,0.05,0.32c-0.16,0.11-0.16,0.27-0.21,0.53c-0.27,0-0.64,0-0.8,0.16
			c-2.6-0.64-5.2-1.59-5.47-4.83c0.21,0.21,0.11,0.74,0.32,0.96c-0.96-5.63-0.42-12.32,0.21-18.27c-0.21-0.11-0.11,0.16-0.21,0.11
			c0.37-1.54,0.53-3.19,0.58-5.04c-0.05-0.27,0.11,0.05,0.11-0.16c-0.05-0.8,0.32-1.81,0.16-2.5c-0.64,1.06-1.11,2.55-1.75,3.88
			c-0.11,1.27-0.64,2.55-1.06,3.77c-0.32,2.23-1.22,4.2-1.59,6.43c-1.17,3.08-1.81,6.48-4.04,8.82c-0.37,0.05-0.64,0.16-1.01,0.32
			c-0.64,0.05-1.22-0.16-1.86-0.21c-0.96-0.85-2.87-0.96-2.92-2.44c-0.21-0.11-0.21-0.42-0.32-0.69c-0.11-0.27,0.11-0.27,0.11-0.42
			c-0.05-0.21-0.21,0.05-0.32-0.05c0-0.42,0.11-0.32-0.05-0.64c0.16,0,0.05,0.11,0.16,0.11c-0.11-1.96-0.21-3.82-0.11-5.74
			c0-0.53-0.21-0.9,0-1.27c0.11-1.27,0-2.66,0.32-3.56c-0.05-0.53-0.11-0.85,0.11-1.17c-0.16-1.65,0.42-3.56,0.21-5.36
			c0.11,0,0.16,0.11,0.21,0.11c-0.11-0.42,0.05-0.96,0-1.59c-0.21,0.21-0.11,1.06-0.27,1.43c-0.05-0.64,0.05-1.06,0.16-1.59
			c0.05,0,0.16,0.05,0.16,0.05c0-0.48,0.16-0.64,0.05-0.96c0-0.05-0.11-0.05-0.11,0c0.05-0.16-0.11-0.53,0-0.8
			c0.21,0.11-0.05,0.58,0.11,0.64c-0.11-1.17,0-2.18,0.16-3.51c-1.75,2.87-2.6,6.11-3.88,9.4c-0.85,3.51-1.75,6.8-2.23,10.41
			c-1.06,3.88-1.75,8.5-2.07,13.12c-0.27,0.64-0.32,1.43-0.9,1.91c-0.37,0.21-0.69,0.48-1.17,0.53c-0.96-0.27-1.59-0.69-2.23-1.12
			c0.16-6.16,1.27-11.05,2.34-16.62c0.05,0,0.05,0,0.05,0c0,0.05,0,0.27,0.05,0.27c0.16,0,0-0.27-0.05-0.27
			c1.27-6.16,3.08-12.59,5.79-18.16c0,0.16,0.11,0.21,0.16,0.27c0.11-0.05,0.05-0.32-0.16-0.27c1.06-2.07,1.86-4.25,3.77-5.52
			c0.64,0.05,1.01,0.11,1.65,0.05c0.8,0.27,1.49,0.37,2.12,0.74c0.74,1.22,0.74,2.87,0.64,4.46c0.05,1.38-0.05,2.71-0.11,4.04
			c-0.11,2.02-0.21,4.19-0.32,6.16c0,0.27,0,0.64-0.11,0.9c-0.21,2.28-0.42,4.51-0.42,6.9c-0.05,2.07-0.11,4.14,0,6.37
			c0.32-0.37,0.58-0.9,0.69-1.43c0.05,0,0.05,0.11,0.16,0.11c-0.16-0.32,0.32-0.9,0.32-1.22
			C213.35,282.43,213.35,282.11,213.45,281.9z M197.47,288.32c0,0.11,0.11,0.16,0.27,0.27
			C197.68,288.43,197.73,288.27,197.47,288.32z M197.73,287.31 M197.84,286.2c0.16,0.05,0.16-0.27,0.05-0.27
			c0,0.16,0,0.16-0.05,0.16C197.84,286.09,197.84,286.15,197.84,286.2z M198,285.51 M198.32,284.82c0-0.05,0-0.05,0-0.21h-0.11
			c0,0.16,0,0.16,0,0.21H198.32z M198.21,284.98 M198.64,282.64c-0.11,0-0.11-0.05-0.16-0.05c0,0.27-0.16,0.58,0,0.8
			C198.48,283.17,198.53,282.91,198.64,282.64z M198.42,283.54 M198.79,281.74c0-0.05,0-0.16-0.05-0.11v0.05L198.79,281.74z
			 M198.95,280.52c0,0.11-0.16,0.11-0.16,0.27C199.06,280.78,199.06,280.52,198.95,280.52z M198.95,281.1 M199.01,280.46
			 M199.06,280.3 M199.17,279.67c0.11,0.05,0,0.21,0.16,0.32C199.38,279.83,199.38,279.67,199.17,279.67z M199.33,278.71
			c0.11,0.16-0.21,0.21,0,0.32C199.43,278.87,199.48,278.71,199.33,278.71z M199.33,279.4 M199.43,278.44c0,0.05,0,0.11,0,0.16
			C199.59,278.71,199.59,278.39,199.43,278.44z M199.64,277.12c0,0.11,0,0.16-0.05,0.21C199.75,277.44,199.75,277.12,199.64,277.12z
			 M199.7,277.59c0.05-0.11-0.11-0.27-0.11-0.05C199.64,277.54,199.64,277.59,199.7,277.59z M199.59,278.07 M200.02,275.52
			c0,0.16,0.11,0.11,0.27,0.21C200.28,275.63,200.12,275.52,200.02,275.52z M200.39,274.99c0.05,0,0.05-0.37-0.05-0.32
			C200.12,274.78,200.39,274.78,200.39,274.99C200.12,275.05,200.55,275.21,200.39,274.99z M200.28,275.37 M200.33,274.41
			 M200.39,274.09 M200.65,273.93c0-0.11-0.05-0.16-0.11-0.16c0,0.05-0.11,0.05-0.11,0.05
			C200.55,273.82,200.55,273.93,200.65,273.93z M200.65,273.45c0,0.16,0,0.27,0.11,0.27C200.76,273.61,200.87,273.4,200.65,273.45z
			 M200.71,272.71 M200.92,273.03c-0.05,0-0.16-0.16-0.21-0.16c0.05,0.16,0.05,0.27,0.16,0.32
			C200.87,273.08,200.92,273.08,200.92,273.03z M200.92,272.02 M201.03,272.71c0-0.16,0-0.21,0-0.27c0,0-0.05,0-0.11,0
			c0,0.05,0,0.11,0,0.27C200.97,272.71,201.03,272.71,201.03,272.71z M200.92,272.82 M201.18,271.81c0.05,0.11-0.21,0.27,0,0.32
			C201.18,272.02,201.29,271.86,201.18,271.81z M201.18,271.22c-0.11,0.21,0.16,0.21,0.16,0.16
			C201.29,271.38,201.29,271.22,201.18,271.22z M201.4,270.85c0,0.05-0.05,0.27,0,0.32C201.61,271.06,201.5,270.85,201.4,270.85z
			 M201.66,269.79c-0.05,0.11-0.27,0.48,0.05,0.48C201.82,270.11,201.72,269.84,201.66,269.79z M201.72,269.2
			c0,0.05-0.05,0.37,0.11,0.16C201.66,269.36,201.93,269.2,201.72,269.2z M201.88,269.36c0,0.16-0.16,0.42-0.05,0.48
			C201.88,269.68,202.14,269.36,201.88,269.36z M201.93,268.89 M201.98,268.35c0,0.16,0.27,0.16,0.21,0
			C202.19,268.3,202.03,268.3,201.98,268.35z M201.98,268.57c0,0,0.05,0,0.05-0.05C202.03,268.57,201.98,268.51,201.98,268.57z
			 M201.98,269.15 M202.14,268.83 M202.25,267.88 M202.35,268.25c0-0.05,0-0.16-0.11-0.16c0.05,0.11,0,0.16,0,0.16
			S202.3,268.25,202.35,268.25z M202.51,267.35c0.05,0,0.11,0.05,0.11,0C202.62,267.24,202.57,267.24,202.51,267.35z M202.51,267.61
			 M202.62,267.13 M202.67,266.6 M202.78,266.92c0-0.11,0-0.16,0-0.16h-0.11c0,0,0,0.05,0,0.16H202.78z M202.78,266.28
			 M202.83,266.12 M202.99,265.7c0,0.05-0.16,0.11,0,0.11C202.99,265.75,203.1,265.75,202.99,265.7z M202.99,266.28
			c0,0-0.16,0.16,0,0.16C202.94,266.39,203.15,266.28,202.99,266.28z M203.1,266.18v-0.05h-0.11v0.05H203.1z M203.1,265.54
			 M203.1,266.02 M203.26,265.01c0,0.05,0,0.05,0,0.11C203.42,265.17,203.42,264.9,203.26,265.01z M203.31,265.33
			c0.11,0.11-0.16,0.21,0,0.32C203.31,265.65,203.42,265.38,203.31,265.33z M203.52,265.06c0-0.05,0-0.05,0.05-0.05
			c0-0.16-0.05-0.16-0.11-0.16c-0.05-0.11,0.11-0.16,0-0.32c0,0.16-0.21,0.32,0,0.32C203.47,264.9,203.47,265.01,203.52,265.06z
			 M203.63,264.43c-0.21,0.32,0.27-0.16,0-0.05V264.43z M203.84,264.05c0,0.05-0.11,0.11,0,0.16
			C203.84,264.16,203.89,264.11,203.84,264.05z M203.95,263.58c-0.05,0.05-0.05,0.21,0.11,0.21
			C204.05,263.73,204.05,263.58,203.95,263.58z M204.05,263.42C204.11,263.1,203.79,263.47,204.05,263.42
			C204.05,263.58,204.26,263.42,204.05,263.42z M204.05,263.15 M204.26,263.1h0.11c0-0.16,0.16-0.27,0.05-0.32
			C204.37,262.88,204.26,262.88,204.26,263.1C204.05,263.1,204.26,263.31,204.26,263.1z M204.48,262.14
			c0.05,0.21-0.05,0.32-0.05,0.48C204.58,262.57,204.74,262.25,204.48,262.14z M204.69,262.04 M204.9,261.5 M204.9,261.61
			 M205.17,260.44c0,0.27-0.16,0.58,0.05,0.64C205.17,260.92,205.33,260.71,205.17,260.44z M205.43,260.39 M205.7,260.02
			 M205.86,259.8c0-0.05,0-0.05,0-0.11c0,0-0.05,0-0.11,0c0,0.05,0,0.05,0,0.11C205.81,259.8,205.86,259.8,205.86,259.8z
			 M205.86,259.33 M206.02,259.59c0-0.11,0-0.11,0-0.16c-0.05,0-0.05,0-0.16,0c0,0.05,0,0.05,0,0.16
			C205.96,259.59,205.96,259.59,206.02,259.59z M206.18,258.85c0,0.11-0.11,0.16,0,0.21C206.18,259.01,206.28,258.95,206.18,258.85z
			 M207.88,280.04c-0.11-0.16,0.05-0.21,0-0.37C207.93,279.45,208.04,280.14,207.88,280.04z M207.93,279.51
			c-0.16-0.27,0-0.48-0.05-0.96C208.04,278.71,207.93,279.14,207.93,279.51z M207.88,277.65 M207.88,278.07 M207.88,280.3
			 M207.88,282.43c0.05-0.74,0-1.33,0-1.96C207.98,281.05,208.04,282.06,207.88,282.43z M208.04,276.59c0,0.11,0,0.11,0,0.21
			c-0.05,0-0.05,0-0.11,0c0-0.11,0-0.11,0-0.21C207.98,276.59,207.98,276.59,208.04,276.59z M207.93,277.17 M207.93,282.96
			 M208.09,284.5c-0.21-0.37-0.11-0.9-0.16-1.27C208.09,283.6,207.98,284.13,208.09,284.5z M207.98,276.37
			c-0.05-0.37,0.05-1.01,0.05-1.43C208.19,275.26,208.04,275.95,207.98,276.37z M207.98,277.01 M208.04,274.73 M208.09,273.4
			c0.11-0.21,0-0.37,0.27-0.37C208.19,273.08,208.41,273.45,208.09,273.4z M208.09,273.93c0-0.16,0.11-0.21,0-0.32
			C208.3,273.67,208.35,273.93,208.09,273.93z M208.19,274.41c0-0.05,0,0-0.11,0c0,0,0-0.05,0-0.11
			C208.19,274.3,208.19,274.36,208.19,274.41z M208.19,272.82 M208.19,281.1 M208.19,285.24 M208.35,272.5
			c-0.16-0.11-0.05-0.32-0.05-0.48C208.51,272.02,208.41,272.44,208.35,272.5z M208.3,283.54c0,0.11,0,0.16,0.11,0.16
			C208.41,283.6,208.35,283.6,208.3,283.54z M208.35,271.7 M208.41,285.88c0-0.05,0-0.11,0-0.11h-0.05c0,0,0,0.05,0,0.11H208.41z
			 M208.41,271.54c-0.05-0.16-0.05-0.48,0-0.69C208.51,271.06,208.51,271.22,208.41,271.54z M208.41,270.43
			c0.11-0.21,0.27,0.05,0.11,0.05C208.51,270.48,208.51,270.43,208.41,270.43z M208.41,278.18c0.11-0.05,0.16,0.05,0.16,0
			S208.51,278.13,208.41,278.18z M208.51,285.08c0-0.16,0-0.21-0.11-0.21c0,0.05,0,0.05,0,0.11L208.51,285.08z M208.41,285.24
			 M208.51,270.16c-0.16,0,0.05-0.16,0-0.32C208.67,269.9,208.51,270.11,208.51,270.16z M208.62,269.58
			c-0.21,0.05-0.11-0.42-0.05-0.53C208.62,269.26,208.57,269.36,208.62,269.58z M208.51,270.48 M208.51,274.14 M208.51,285.61
			 M208.57,268.94 M208.67,273.77 M208.88,272.02c0-0.11,0-0.16-0.16-0.16c0,0,0,0.05,0,0.16
			C208.83,272.02,208.83,272.02,208.88,272.02z M208.73,286.84 M208.83,269.58c0,0.05-0.11,0.11,0,0.21
			C208.83,269.68,208.88,269.63,208.83,269.58z M208.83,265.86c0-0.32,0-0.42,0.11-0.64C208.94,265.43,208.99,265.81,208.83,265.86z
			 M208.83,271.54 M208.88,268.41c0,0.16,0,0.27,0.05,0.27C208.94,268.57,208.99,268.35,208.88,268.41z M208.94,268.2
			 M209.15,263.79c-0.16,0.16-0.16,0.42,0.05,0.48C209.15,264.11,209.31,263.79,209.15,263.79z M209.15,263.31
			c0,0.16,0,0.21,0.05,0.21C209.2,263.47,209.26,263.2,209.15,263.31z M209.15,263.58c0,0.05,0,0.16,0.05,0.16
			C209.26,263.63,209.2,263.58,209.15,263.58z M209.2,262.88 M209.2,263.15h0.05H209.2z M209.26,262.19 M209.36,261.56
			 M212.44,279.08 M212.44,279.08 M212.71,278.92c0-0.11,0.05-0.16,0.16-0.16C212.82,278.82,212.82,278.92,212.71,278.92z
			 M212.87,278.76c0-0.05,0.11-0.05,0.16-0.05C213.03,278.76,212.97,278.76,212.87,278.76z M213.19,278.44
			c0.16,0.05-0.05,0.27-0.16,0.27C213.08,278.55,213.13,278.55,213.19,278.44z M213.19,283.28 M213.29,282.59 M213.45,282.27
			c0.05,0.16-0.05,0.16,0,0.37C213.66,282.59,213.72,282.32,213.45,282.27z M213.77,282.06
			C213.93,281.95,213.72,281.74,213.77,282.06C213.51,282.06,213.77,282.27,213.77,282.06z M214.04,281.26
			c-0.21,0-0.11,0.21-0.27,0.37C214.04,281.63,213.98,281.37,214.04,281.26z M214.04,281.1c0.21-0.64,0.69-1.59,0.53-2.18
			c0-0.16-0.21,0,0,0C214.25,279.56,214.25,280.36,214.04,281.1z M215.2,278.07c0-0.16,0-0.21-0.11-0.21c0-0.58,0.42-1.01,0.32-1.54
			c-0.05,0.21-0.11,0.37-0.16,0.53c0-0.05,0-0.16-0.16-0.16c0,1.06-0.48,1.49-0.53,2.07c0.16-0.16,0,0.16,0.16,0.16
			c0.05-0.16-0.05-0.64,0.27-0.53c0-0.27-0.21-0.48,0.11-0.53C215.05,277.91,215.1,278.07,215.2,278.07z M215.31,276.27
			c0,0.05-0.05,0.11-0.11,0.21C215.31,276.48,215.42,276.32,215.31,276.27z M215.95,274.41c-0.05,0.16-0.05,0-0.21,0.05
			c-0.05,0.42-0.11,0.74-0.32,0.96c0.11-0.42,0.42-1.01,0.42-1.38C215.95,274.09,215.95,274.25,215.95,274.41z M215.42,275.63
			 M215.9,273.77 M216.05,274.14c-0.05,0-0.11-0.11-0.05-0.21C216.16,273.93,216.16,274.09,216.05,274.14z M216.05,273.61
			c-0.11-0.48,0.32-0.9,0.42-1.59C216.64,272.44,216.16,273.08,216.05,273.61z M216.53,271.91c0.05-0.32,0.27-0.48,0.27-0.85
			C216.85,271.43,216.8,271.75,216.53,271.91z M216.69,272.55 M216.8,273.03 M216.96,270.9c-0.16,0-0.11-0.27,0-0.27
			C216.9,270.8,217.01,270.85,216.96,270.9z M216.96,271.17 M217.17,270.85c0,0.05-0.05,0-0.16,0.05
			C217.01,270.85,217.12,270.85,217.17,270.85z M217.22,272.34c0,0,0.05,0,0.05-0.11C217.28,272.34,217.22,272.23,217.22,272.34z
			 M217.91,268.73c-0.05,0-0.05-0.16,0-0.16C217.91,268.67,217.91,268.67,217.91,268.73z M218.07,268.04c0,0.05,0.05,0.16,0,0.21
			c-0.16,0.05-0.11-0.05-0.11-0.21C217.97,268.04,217.97,268.04,218.07,268.04z M218.76,266.44c-0.16,0-0.32-0.27-0.16-0.32
			C218.55,266.34,218.76,266.34,218.76,266.44z M218.76,265.75c0.05,0,0.11,0.53-0.16,0.37
			C218.6,266.02,218.76,266.02,218.76,265.75z M219.03,265.75c-0.27-0.05-0.21-0.32,0-0.42
			C219.03,265.54,218.87,265.54,219.03,265.75z M219.13,265.06c0.11,0.05,0,0.27-0.11,0.27
			C219.03,265.17,219.08,265.12,219.13,265.06z M219.51,264.8c-0.16-0.11-0.16,0-0.11,0.21c-0.16,0-0.16-0.11-0.27-0.11
			c0.05-0.11,0.11-0.11,0.11-0.37c0.16,0,0.27,0.21,0.27-0.05C219.67,264.53,219.45,264.69,219.51,264.8z M219.13,265.33
			 M219.13,265.33 M219.4,264.48c-0.05,0,0-0.27,0.11-0.21C219.56,264.43,219.4,264.43,219.4,264.48z M219.4,266.34 M221.26,261.5
			c0,0,0-0.11-0.11-0.11c-0.11,0,0,0.21-0.05,0.27c-0.27-0.16-0.05,0.58-0.37,0.48c-0.05,0.11,0.05,0.11,0,0.21
			c-0.21-0.16-0.27,0.27-0.27,0.58c-0.11,0-0.11,0.16-0.11,0.21c-0.27,0.05,0-0.05-0.16-0.21c-0.11,0.48-0.64,0.85-0.37,1.27
			c-0.11-0.05-0.16-0.16-0.27,0c0.16-0.64,0.8-1.65,1.22-2.34c0.05,0.11,0.05,0,0,0c0.05-0.32,0.27-0.53,0.48-0.69
			C221.26,261.34,221.26,261.29,221.26,261.5z M219.56,265.12 M220.62,271.75 M221.26,287.21v-0.05c0.05,0,0.05-0.05,0.05-0.05
			C221.42,287.1,221.37,287.42,221.26,287.21z M221.31,282.22 M221.37,285.77c-0.05,0.11-0.05-0.27-0.05-0.32
			C221.42,285.3,221.37,285.72,221.37,285.77z M221.31,286.36 M221.31,287.53 M221.31,288.91 M221.37,269.68
			c-0.11-0.05,0.05-0.11,0-0.21C221.68,269.47,221.42,269.63,221.37,269.68z M221.42,280.52 M221.68,290.82
			c-0.27-0.11-0.21-0.58-0.21-0.96C221.68,290.08,221.68,290.5,221.68,290.82z M221.58,278.87c-0.16-0.11,0.16-0.37-0.11-0.58
			C221.79,278.39,221.58,278.76,221.58,278.87z M221.58,279.24l-0.11-0.05v-0.05C221.58,279.08,221.58,279.19,221.58,279.24z
			 M221.47,289.23 M221.47,289.65 M221.58,278.13 M221.68,277.75c-0.21-0.11,0.05-0.16,0-0.27
			C221.79,277.49,221.74,277.65,221.68,277.75z M221.79,286.84c0-0.05,0-0.11,0-0.16c-0.05,0-0.05,0-0.11,0c0,0.05,0,0.11,0,0.16
			C221.74,286.84,221.74,286.84,221.79,286.84z M221.74,285.3c0,0.11-0.05,0.32,0.05,0.32C221.79,285.51,221.79,285.4,221.74,285.3z
			 M221.74,260.71 M221.74,276.32 M221.74,283.97c0,0,0.05,0,0.05-0.05C221.79,283.91,221.74,283.91,221.74,283.97z M221.74,288.96
			 M221.79,288.64C222,288.64,221.79,288.43,221.79,288.64C221.74,288.75,221.9,288.75,221.79,288.64z M221.79,260.44
			c0.11-0.05,0.16,0,0.16-0.05C221.9,260.39,221.79,260.39,221.79,260.44z M221.79,260.87 M221.79,276 M221.79,278.71
			 M221.79,278.92 M221.79,282.06 M221.79,282.91 M221.79,283.22 M221.9,283.54c0-0.05,0-0.16-0.11-0.16c0,0.11,0,0.16,0,0.16
			C221.9,283.54,221.9,283.49,221.9,283.54z M221.9,280.3c0,0.11-0.11,0.21,0.11,0.21C222,280.41,221.95,280.36,221.9,280.3z
			 M221.9,278.23 M221.9,281.63 M221.95,274.09c0-0.05,0-0.16,0-0.27C222.06,273.77,222.06,274.14,221.95,274.09z M221.95,279.56
			 M221.95,282.59 M222,260.23 M222.06,278.18c0-0.05,0-0.11,0-0.11H222c0,0,0,0.05,0,0.11H222.06z M222.06,277.59
			c0,0.05-0.11,0.21,0,0.27C222.11,277.81,222.22,277.59,222.06,277.59z M222.06,291.99c-0.05,0.21,0,0.32,0.16,0.42
			C222.11,292.25,222.22,291.99,222.06,291.99z M222.06,275.95c0.05,0.21-0.05,0.27,0,0.53
			C222.27,276.48,222.32,275.95,222.06,275.95z M222.06,272.55 M222.11,273.03c-0.05,0-0.05-0.05-0.05-0.21
			C222.11,272.87,222.11,272.87,222.11,273.03z M222.06,273.35 M222.06,278.55 M222.06,279.24 M222.11,279.83v-0.05h-0.05v0.05
			H222.11z M222.06,280.52 M222.27,272.02c-0.05,0-0.16,0-0.16,0C222.22,272.02,222.27,272.02,222.27,272.02z M222.11,276.9
			 M222.32,271.06c0,0,0,0.05,0,0.11c-0.05,0-0.05,0-0.11,0c0-0.05,0-0.11,0-0.11C222.27,271.06,222.27,271.06,222.32,271.06z
			 M222.22,280.83 M222.32,273.08c0,0.21-0.05,0.32-0.05,0.53C222.43,273.51,222.37,273.08,222.32,273.08z M222.27,275.37
			 M222.27,292.57c0,0.21,0,0.32,0.11,0.32C222.37,292.78,222.32,292.57,222.27,292.57z M222.32,272.39 M222.37,273.67
			c-0.05,0.05,0,0.27,0.05,0.37C222.43,273.93,222.53,273.67,222.37,273.67z M222.53,268.35c0,0,0,0.05,0,0.16
			c-0.11,0-0.11,0-0.16,0c0-0.11,0-0.16,0-0.16C222.43,268.35,222.43,268.35,222.53,268.35z M222.53,270.8
			c-0.11,0.11-0.16,0.37,0.05,0.37C222.53,271.06,222.75,270.8,222.53,270.8z M222.53,267.72 M222.53,272.87 M222.59,267.08
			c-0.05-0.05,0-0.27,0-0.32C222.75,266.81,222.59,266.97,222.59,267.08z M222.59,268.73 M222.59,273.35h0.05H222.59z M222.85,269.2
			c0-0.05,0-0.16,0-0.21c-0.11,0-0.11,0-0.16,0c0,0.05,0,0.16,0,0.21C222.75,269.2,222.75,269.2,222.85,269.2z M222.69,269.58
			 M222.69,272.82 M222.85,270.11c0.05,0,0.05-0.27,0-0.27C222.75,269.9,222.75,270,222.85,270.11
			C222.64,270.16,222.91,270.32,222.85,270.11z M222.85,265.81 M222.91,269.47 M223.01,268.2 M225.56,290.98 M226.2,260.71"/>
		<path d="M251.53,262.25c-4.62-0.11-8.6,0.69-12.69,2.02c0.53,0.58,0.42,1.59,0.37,2.34c-0.69,2.39-1.38,4.78-2.18,7.33
			c0,0.21-0.11,0.21,0,0.37c-0.32,0.16-0.21,0.37-0.37,0.69c2.39,0.05,5.63-0.58,7.06,1.27c0.11,0.27,0.21,0.58,0.32,0.85
			c-0.11,0.05-0.21,0.16-0.48,0.21c0.05,0.11,0.16,0.11,0.16,0.16c0.11,0.16-0.48,0.27-0.32,0.37c0,0.21-0.37-0.05-0.21,0.27
			c-0.42,0.05-0.96,0-1.38,0.11c-0.37,0.16-1.01,0.16-1.49,0.21c-1.59,0.27-3.19,0.69-4.89,0.74c-0.21,0.8-0.42,1.28-0.53,1.97
			c-0.64,2.02-1.27,4.67-0.8,7.49c2.12,0.32,4.41-1.11,5.74-1.59c0.48-0.16,0.69-0.21,1.11-0.37c1.59-0.32,2.76-1.06,3.98-1.06
			c0-0.05,0-0.11-0.05-0.11c0.42-0.11,1.38-0.21,2.34-0.11c0.42,0.42,0.64,1.17-0.05,1.49c-0.05,0.16-0.05,0.16,0,0.32
			c-0.27,0-0.27,0.27-0.42,0.27c0,0.16,0.16,0.16,0.27,0.16c-0.16,0.16-0.58,0.11-0.48,0.42c-0.11,0-0.11-0.11-0.32,0
			c0,0.05,0,0.11,0.21,0.05c-0.32,0.27-0.58,0.21-0.8,0.53c-1.43,0.58-2.55,1.33-4.04,1.91c-0.16,0.05-0.27,0.16-0.32,0.32
			c-0.85,0.27-1.7,0.58-2.39,0.74c-1.43,0.32-2.66,0.05-3.93-0.16c-0.27-0.21-0.53-0.53-0.85-0.48c-1.43-1.27-2.55-2.92-3.51-4.73
			c0.05-0.42-0.05-0.53-0.11-0.8c0-0.48,0-0.9-0.05-1.27c0.16-2.76,0.74-5.26,1.65-7.91c0.27-1.17,0.58-2.49,1.06-3.72
			c0-0.05-0.05-0.11-0.05-0.21c0.69-2.12,1.17-4.3,1.97-6.53c-0.48,0.21-0.96,0.37-1.54,0.37c-1.11-0.53-1.65-1.75-1.7-3.03
			c0-0.16-0.05,0.05-0.11-0.05c0.05-0.27-0.16-0.32,0-0.53c0.21,0,0.32-0.05,0.42,0.05c4.14-2.07,10.09-3.98,15.35-3.93
			c1.17,0.05,2.28,0.32,3.19,0.48c0.58,0.16,1.75,0.9,2.12,1.27c0.69,0.74,1.65,2.07,1.01,3.08c-0.37,0.05-0.53,0.27-0.96,0.11
			c-0.05-0.21,0.32-0.64,0.27-1.01c0-0.11-0.27-0.05-0.32-0.05C252.49,262.19,251.96,262.57,251.53,262.25z M236.03,261.19
			c-0.05,0-0.11,0.05-0.11,0.11C235.97,261.29,236.03,261.24,236.03,261.19z M237.83,260.55 M238.25,260.39c0.16,0,0.16,0,0.16-0.05
			C238.41,260.34,238.25,260.34,238.25,260.39z M238.63,260.34c0,0,0.11,0,0.11-0.05C238.73,260.34,238.63,260.28,238.63,260.34z
			 M238.89,260.28 M239.21,260.12c0,0.11,0.21,0,0.21-0.05C239.37,260.07,239.21,260.12,239.21,260.12z M239.48,260.07
			 M239.85,260.02 M239.85,287.05 M240.22,259.8c0,0.11-0.21-0.05-0.21,0.21C240.17,260.02,240.38,259.91,240.22,259.8z
			 M240.33,259.91 M240.75,259.75c-0.05,0.05-0.32-0.05-0.27,0.16C240.54,259.8,240.75,259.91,240.75,259.75z M240.8,259.75
			 M240.96,286.68 M241.07,259.75 M241.34,259.7c0,0,0.05,0,0.05-0.05C241.39,259.64,241.34,259.64,241.34,259.7z M241.65,259.59
			C241.92,259.64,241.65,259.43,241.65,259.59C241.44,259.49,241.65,259.75,241.65,259.59z M241.81,259.59c0,0,0.11,0,0.11-0.11
			C241.92,259.59,241.81,259.49,241.81,259.59z M242.29,259.43c-0.05,0-0.05,0-0.16,0c0,0.05,0,0.05-0.05,0.05
			C242.24,259.49,242.29,259.59,242.29,259.43z M242.56,259.49c0-0.05,0-0.05,0-0.11c0,0-0.11,0-0.16,0c0,0.05,0,0.05,0,0.11
			C242.45,259.49,242.56,259.49,242.56,259.49z M242.66,259.43 M243.03,259.38 M243.19,259.33 M243.41,259.17 M243.62,259.17
			c-0.05,0.16,0.27,0.16,0.21,0C243.83,259.11,243.62,259.11,243.62,259.17z M243.99,259.17c0.05-0.05,0.21,0,0.21-0.05
			C244.15,259.11,244.04,259.11,243.99,259.17z M244.84,259.01 M245.11,259.01c0.11,0,0.16,0,0.21-0.05
			C245.21,259.01,245.16,258.95,245.11,259.01z M246.06,258.95 M246.12,288.11 M246.75,258.85c-0.05,0-0.16,0-0.16,0.11
			C246.7,258.95,246.75,258.95,246.75,258.85z M252.33,262.51 M252.59,262.51c0.05,0,0.05,0.05,0.21,0.05
			C252.81,262.67,252.54,262.62,252.59,262.51z M253.6,263.47"/>
	</g>
</g>
</svg>
