<svg id="border-fourteen" data-name="Layer 1" xmlns="http://www.w3.org/2000/svg" width="300" height="300" viewBox="0 0 300 300">
  <g>
    <polygon points="146.61 269.57 157.26 269.57 151.88 245.92 146.61 269.57"/>
    <g>
      <path d="M75.77,248h5.68A1.59,1.59,0,0,0,83,246.4a1.64,1.64,0,0,0-1.59-1.59h-5.6a1.61,1.61,0,0,0-1.67,1.59A1.59,1.59,0,0,0,75.77,248Z"/>
      <polygon points="70.25 272.39 86.88 272.39 86.88 250.33 70.25 250.16 70.25 272.39"/>
      <path d="M78.61,273.82a2.24,2.24,0,0,0-2.26,2.25,2.26,2.26,0,1,0,2.26-2.25Z"/>
      <path d="M257.1,11.6A11.22,11.22,0,0,0,245.9.4H54.1A11.22,11.22,0,0,0,42.9,11.6v211h0v67.23a9.45,9.45,0,0,0,9.45,9.45h195.3a9.4,9.4,0,0,0,9.45-9.45V222.6h0ZM89.48,257.1v19.22a3.44,3.44,0,0,1-3.43,3.43H71.25a3.45,3.45,0,0,1-3.43-3.43V246.23a3.45,3.45,0,0,1,3.43-3.43h14.8a3.5,3.5,0,0,1,3.43,3.43Zm22,23c-5.59,0-7.88-3.86-7.88-9.13v-1.88h2.29v2c0,3.91,1.52,6.73,5.54,6.73S117,275,117,271.09c0-8.77-13.2-8.93-13.2-19.11,0-5.48,2.4-9,7.77-9.09,5.54,0,7.78,3.87,7.78,9.14v.78H117v-.94c0-3.86-1.47-6.78-5.43-6.78s-5.43,2.87-5.43,6.73c0,8.88,13.2,9,13.2,19.11C119.35,276.2,117.06,280.06,111.47,280.06Zm27.36-24.9h-2.3V252c0-3.92-1.51-6.89-5.53-6.89s-5.54,3-5.54,6.89v19c0,3.92,1.52,6.84,5.54,6.84s5.53-2.92,5.53-6.84v-4.33h2.3v4.17c0,5.28-2.3,9.24-7.89,9.24s-7.88-4-7.88-9.24V252.14c0-5.28,2.3-9.25,7.88-9.25s7.89,4,7.89,9.25Zm20.62,24.59-1.83-8.09H146.24l-1.83,8.09h-2.19l8-36.59h3.5l8.14,36.59Zm22.34,0h-2.66L167.7,247.18v32.57h-2.2V243.21h3.14l11,30.85V243.21h2.19Zm34.41,0h-2.3V247.28l-7.62,32.42h-2.4l-7.73-32.32v32.37H194V243.21h3.45l7.67,32.31,7.62-32.31h3.45Zm18.58-34.35h-12v14.72h10v2.2h-10v15.24h12v2.19H220.37V243.21h14.41Zm-65.92-22.87-17.45-13.11a2.4,2.4,0,0,0-2.82,0l-17.45,13.11H44.43V11.6A9.68,9.68,0,0,1,54.1,1.93H245.9a9.68,9.68,0,0,1,9.67,9.67V222.53Z"/>
    </g>
  </g>
</svg>
