<svg id="border-four" data-name="Layer 1" xmlns="http://www.w3.org/2000/svg" width="300" height="300" viewBox="0 0 300 300">
  <g>
    <path d="M135.32,26.41l-1.12-3.49c-.32,1.27-.65,2.44-1,3.49l-2.65,7.06h7.38Z"/>
    <path d="M249,91.43H61.37a10.22,10.22,0,0,0-10.21,10.21V289.23a10.22,10.22,0,0,0,10.21,10.21H248.89a10.33,10.33,0,0,0,10.28-10.21V101.64A10.22,10.22,0,0,0,249,91.43Zm2.31,194.67a5.5,5.5,0,0,1-5.51,5.52H64.5A5.51,5.51,0,0,1,59,286.1V104.77a5.51,5.51,0,0,1,5.52-5.52H245.76a5.5,5.5,0,0,1,5.51,5.52Z"/>
    <path d="M60.47,60.42H190l14,21.47a2.35,2.35,0,0,0,3.28,0l14-21.47h28.25a9.24,9.24,0,0,0,9.24-9.24V9.67A9.24,9.24,0,0,0,249.56.42H60.47a9.2,9.2,0,0,0-9.24,9.25V51.18A9.24,9.24,0,0,0,60.47,60.42ZM210.72,20h13v2.58H213.65v7.26h9.5v2.55h-9.5V40.7h10.09v2.58h-13Zm-29.6,0h4.33l7.19,19.08h.13L200.08,20h4.3V43.28h-2.9V29q0-2.4.22-6.07h-.12L193.8,43.28h-2.4l-7.68-20.43h-.13q.24,2.55.24,6.3V43.28h-2.71Zm-33.27,0h3.4l.71,1.13,7.65,11.82,4.06,6.32h.13c0-.25-.06-1.16-.13-2.73s-.09-2.7-.09-3.4V20h2.74V43.28h-3.43L150.42,23.94h-.13l.08,1.29c.13,1.93.19,3.61.19,5v13h-2.71Zm-14.92-.1h2.64l9.08,23.39h-3l-2.81-7.22h-9.24l-2.77,7.22h-3Zm-26.4,5.4a9.61,9.61,0,0,1,3.88-4.17,11.7,11.7,0,0,1,6-1.47A14.24,14.24,0,0,1,122.82,21l-1.17,2.49a12.78,12.78,0,0,0-5.29-1.28,7.35,7.35,0,0,0-5.91,2.52,10.22,10.22,0,0,0-2.16,6.88q0,4.52,2.09,7A7.37,7.37,0,0,0,116.32,41a20.06,20.06,0,0,0,5.6-.92v2.55a14.21,14.21,0,0,1-2.86.74,22.45,22.45,0,0,1-3.15.2c-3.43,0-6.07-1.05-7.93-3.13s-2.78-5-2.78-8.87A14.26,14.26,0,0,1,106.53,25.29ZM87,39.69a17.06,17.06,0,0,0,3.24,1,16.52,16.52,0,0,0,3.29.36,6.45,6.45,0,0,0,3.94-1,3.28,3.28,0,0,0,1.32-2.76,3.49,3.49,0,0,0-.48-1.91,4.61,4.61,0,0,0-1.6-1.4,22.73,22.73,0,0,0-3.4-1.48,11,11,0,0,1-4.62-2.78,6.13,6.13,0,0,1-1.39-4.14,5.24,5.24,0,0,1,2-4.33,8.5,8.5,0,0,1,5.39-1.61A15.58,15.58,0,0,1,101.12,21l-.9,2.52a14.65,14.65,0,0,0-5.58-1.25,5.2,5.2,0,0,0-3.24.9,3,3,0,0,0-1.17,2.5,3.66,3.66,0,0,0,.45,1.9,4.2,4.2,0,0,0,1.47,1.38,18.91,18.91,0,0,0,3.18,1.42,17.12,17.12,0,0,1,3.87,1.85,5.91,5.91,0,0,1,1.88,2.07,6.09,6.09,0,0,1,.6,2.8,5.8,5.8,0,0,1-2.2,4.8,9.6,9.6,0,0,1-6.11,1.75A15,15,0,0,1,87,42.5Z"/>
  </g>
</svg>
