<svg id="Layer_15" data-name="Layer 1" xmlns="http://www.w3.org/2000/svg" width="300" height="300" viewBox="0 0 300 300">
  <g>
    <path d="M242.1,298.92H57.9A20.73,20.73,0,0,1,37.19,278.2V22.28A20.73,20.73,0,0,1,57.9,1.57H242.1a20.73,20.73,0,0,1,20.71,20.71V278.2A20.73,20.73,0,0,1,242.1,298.92ZM57.9,6.13A16.17,16.17,0,0,0,41.75,22.28V278.2A16.18,16.18,0,0,0,57.9,294.36H242.1a16.18,16.18,0,0,0,16.15-16.16V22.28A16.17,16.17,0,0,0,242.1,6.13Z"/>
    <g>
      <path d="M71.46,56.81a16.54,16.54,0,0,0,8.35,2.71c2.1,0,3.65-.83,3.65-2.78,0-2.43-2.46-2.64-5.82-3.73-3.61-1.19-6.86-3-6.86-7.51,0-4.88,3.68-7.92,9.18-7.92a18,18,0,0,1,8,1.88v5.67a16.66,16.66,0,0,0-8-2.53c-2,0-3.36.73-3.36,2.46,0,2.32,2.42,2.5,5.57,3.54,3.93,1.3,7.11,3.15,7.11,7.78,0,5.09-3.86,8.16-9.5,8.16a19.35,19.35,0,0,1-8.28-1.91Z"/>
      <path d="M113.39,62.81a16.82,16.82,0,0,1-7.67,1.73c-8.42,0-14.23-5.82-14.23-13.44s5.81-13.52,14.23-13.52A16.82,16.82,0,0,1,113,39.21V45a13.31,13.31,0,0,0-7.23-2.28c-5.06,0-8.53,3.54-8.53,8.28s3.36,8.34,8.75,8.34A13.16,13.16,0,0,0,113.39,57Z"/>
      <path d="M125.57,38h5.56l10.63,26.17h-6.14l-2.1-5.5H123l-2.14,5.5h-5.89Zm-.83,16.15h7l-1.08-2.92c-.76-2.06-1.7-4.67-2.39-6.65h-.07c-.68,2-1.62,4.59-2.46,6.79Z"/>
      <path d="M154.7,53.59c-1.7-2.28-3.29-4.48-4.92-6.76l-.07,0c0,2.49.07,5,.07,7.55v9.73h-5.53V38h5.42l7.85,10.55c1.69,2.28,3.29,4.48,4.91,6.76l.07,0c0-2.49-.07-5-.07-7.55V38H168V64.15h-5.42Z"/>
      <path d="M190.66,52.72c-1.3-1.84-2.6-3.75-3.83-5.6l-.07,0c0,1.88.07,4.34.07,6.5V64.15H181.3V38h5.53L194.6,49,202.37,38h5.46V64.15h-5.75V53.66c0-2.16,0-4.62.07-6.5l-.07,0c-1.23,1.85-2.53,3.76-3.83,5.6l-3.8,5.39Z"/>
      <path d="M212.6,38h16.15v5H218.34v5.13h9V52.9h-9v6.22h10.81v5H212.6Z"/>
    </g>
    <rect x="70.75" y="72.88" width="159.16" height="5.13"/>
  </g>
</svg>
