<svg id="border-twenty-one" data-name="Layer 1" xmlns="http://www.w3.org/2000/svg" width="300" height="300" viewBox="0 0 300 300">
  <g>
    <g>
      <path d="M147.38,268.63a3.69,3.69,0,0,0-1.74,3.37,3.63,3.63,0,0,0,1.12,2.84,4.53,4.53,0,0,0,3.15,1,6.19,6.19,0,0,0,6.71-6.73v-1.91l-3.4.14Q149.13,267.55,147.38,268.63Z"/>
      <path d="M234.69,258.86a5.82,5.82,0,0,0-4.5,1.85,8.67,8.67,0,0,0-2,5.34h12a8.47,8.47,0,0,0-1.47-5.29A4.86,4.86,0,0,0,234.69,258.86Z"/>
    </g>
    <path d="M253.44,2.69H46.64A11.39,11.39,0,0,0,35.3,14V287.33a11.27,11.27,0,0,0,11.26,11.26H253.44a11.27,11.27,0,0,0,11.26-11.26V14A11.27,11.27,0,0,0,253.44,2.69ZM86.55,261.76v16.93H79.92v-9.61H66.67v9.61H60V261.75H56.56l16.75-14.58L90,261.76Zm33.83,13.78a9.93,9.93,0,0,1-6.39,1.91,20.15,20.15,0,0,1-7.35-1.05v-1.82a18.82,18.82,0,0,0,7.21,1.19,8.08,8.08,0,0,0,5.1-1.47,4.67,4.67,0,0,0,1.89-3.87,4.45,4.45,0,0,0-.63-2.46,5.66,5.66,0,0,0-2-1.78,25.38,25.38,0,0,0-4.15-1.73,14.22,14.22,0,0,1-5.54-3,6.4,6.4,0,0,1,.77-9.05,9.14,9.14,0,0,1,5.91-1.85,17.29,17.29,0,0,1,6.92,1.4l-.66,1.57a16.05,16.05,0,0,0-6.22-1.36,7.35,7.35,0,0,0-4.62,1.34,4.4,4.4,0,0,0-1.71,3.65,4.69,4.69,0,0,0,.53,2.38,4.84,4.84,0,0,0,1.72,1.67,24,24,0,0,0,4.11,1.78,21.68,21.68,0,0,1,4.6,2.05,6.57,6.57,0,0,1,2.24,2.25,6.14,6.14,0,0,1,.71,3.05A6.25,6.25,0,0,1,120.38,275.54Zm10.06-1.92a6.33,6.33,0,0,0,5.15,2.23,12.72,12.72,0,0,0,4.92-1v1.64a11.12,11.12,0,0,1-4.88.91,8.32,8.32,0,0,1-6.53-2.62,10.62,10.62,0,0,1-2.36-7.33q0-4.83,2.45-7.52a8.59,8.59,0,0,1,6.7-2.69,13.59,13.59,0,0,1,4.83.87l-.48,1.58a14.17,14.17,0,0,0-4.38-.84,6.65,6.65,0,0,0-5.42,2.2,9.68,9.68,0,0,0-1.84,6.36A9.37,9.37,0,0,0,130.44,273.62Zm27.93,3.48h-1.31l-.44-3.08h-.15a9.22,9.22,0,0,1-3,2.66,8.16,8.16,0,0,1-3.66.77,6.32,6.32,0,0,1-4.45-1.46,5.25,5.25,0,0,1-1.59-4.06,5,5,0,0,1,2.37-4.42,13,13,0,0,1,6.86-1.66l3.7-.11v-1.28a6.65,6.65,0,0,0-1.13-4.19,4.37,4.37,0,0,0-3.63-1.41,12.19,12.19,0,0,0-5.6,1.5l-.66-1.54a14.87,14.87,0,0,1,6.33-1.5,6.32,6.32,0,0,1,4.79,1.67q1.58,1.65,1.58,5.18Zm21.6,0h-1.76V264.49a6.16,6.16,0,0,0-1.23-4.26,5,5,0,0,0-3.83-1.33c-2.32,0-4,.58-5.1,1.76s-1.62,3.08-1.62,5.71V277.1h-1.77V257.66h1.5l.34,2.67h.11q1.89-3,6.74-3,6.61,0,6.62,7.09Zm40.46,0h-1.85V257.29c0-1.39.08-2.82.22-4.29h-.14l-9.78,24.1h-1.17L198,253h-.14c.09,1.48.14,3,.14,4.54v19.6h-1.75V251H199l9.26,23h.11l9.26-23h2.76Zm21.66-9.48h-14a9.26,9.26,0,0,0,1.87,6.12,6.59,6.59,0,0,0,5.25,2.11,15.72,15.72,0,0,0,2.92-.24,17.68,17.68,0,0,0,3.2-1v1.61a13.93,13.93,0,0,1-3,1,16.31,16.31,0,0,1-3.08.26,8.48,8.48,0,0,1-6.61-2.61c-1.58-1.74-2.36-4.17-2.36-7.31a11.45,11.45,0,0,1,2.28-7.45,7.58,7.58,0,0,1,6.17-2.79,6.68,6.68,0,0,1,5.42,2.39,9.92,9.92,0,0,1,2,6.51Zm18.08-46.38a6.31,6.31,0,0,1-6.32,6.32H46.23a6.3,6.3,0,0,1-6.31-6.32V13.54a6.3,6.3,0,0,1,6.31-6.32H253.85a6.31,6.31,0,0,1,6.32,6.32Z"/>
  </g>
</svg>
