<svg id="Layer_3" data-name="Layer 1" xmlns="http://www.w3.org/2000/svg" width="300" height="300" viewBox="0 0 300 300">
  <g>
    <polygon points="133.04 271.58 139.26 271.58 136.16 263.48 133.04 271.58"/>
    <path d="M168.32,241.24l-16.95-12.73a2.31,2.31,0,0,0-2.74,0l-16.95,12.73H46v47.89a9.17,9.17,0,0,0,9.18,9.17h189.7a9.13,9.13,0,0,0,9.18-9.17V241.24Zm-64.79,36.14a6.47,6.47,0,0,1-2.5,2,7.28,7.28,0,0,1-3.41.71,10,10,0,0,1-2-.23,13.24,13.24,0,0,1-6-3l1.66-1.88a10.87,10.87,0,0,0,4.82,2.5,6.14,6.14,0,0,0,3.88-.31,3.17,3.17,0,0,0,2-2.9c0-2.11-2.25-2.87-4.45-3.29a21,21,0,0,1-4.61-1.41,4.94,4.94,0,0,1-2.59-4.39,5.08,5.08,0,0,1,.93-2.9,6.23,6.23,0,0,1,2.36-1.89,8,8,0,0,1,4.76-.59,11.46,11.46,0,0,1,5.32,2.53l-1.6,1.95c-2.91-2.4-5.72-2.45-7.41-1.66a2.9,2.9,0,0,0-1.83,2.53c0,1.91,1.63,2.65,4.22,3.21a18.59,18.59,0,0,1,4.62,1.38,5,5,0,0,1,2.79,4.53A5.35,5.35,0,0,1,103.53,277.38Zm13.6.34a8,8,0,0,0,6.39-3.18l2,1.46a10.37,10.37,0,0,1-8.36,4.2,10.49,10.49,0,1,1,8.39-16.75l-2,1.46a7.89,7.89,0,0,0-6.39-3.21,8,8,0,1,0,0,16Zm25.34,2.17-2.23-5.83h-8.19l-2.22,5.83h-2.71l7.72-20.05h2.62l7.74,20.05Zm21.82,0h-2.73L150.83,264v15.85H148.3V259.84h2.76l10.69,15.85V259.84h2.54Zm29.31,0h-2.51v-16l-6.39,8.73-6.36-8.73v16h-2.51V259.84h2.65l6.22,8.56,6.22-8.56h2.68Zm16.75-17.62H200.21V267h8.84v2.5h-8.84v7.94h9.89v2.48H197.68V259.84h12.67Z"/>
  </g>
</svg>
