<svg width="242" height="216" viewBox="0 0 242 216" fill="none" xmlns="http://www.w3.org/2000/svg">
<path d="M192.271 196.983H162.097L140.197 153.183L161.124 157.076L192.271 196.983Z" fill="white"/>
<path d="M188.378 200.877C186.042 198.541 167.613 172.974 158.691 160.483L196.651 169.243C201.031 175.245 211.64 189.78 219.038 199.903C228.285 212.557 228.285 213.043 221.471 214.99C214.658 216.937 191.298 203.797 188.378 200.877Z" fill="#9B27AF"/>
<path d="M0.0366875 205.743C-0.741985 203.797 11.0679 190.332 17.0701 183.843L46.2703 191.143C43.5125 192.765 35.2715 197.373 24.3701 202.823C10.7433 209.637 1.01003 208.177 0.0366875 205.743Z" fill="#9B27AF"/>
<path d="M68.1708 130.796C77.5149 134.3 81.1487 133.554 81.7976 132.743H116.351L189.838 127.876C193.407 127.551 203.27 127.389 214.172 129.336C227.799 131.769 244.832 143.449 240.452 165.35C236.072 187.25 197.138 193.09 191.785 191.143C186.432 189.196 159.665 160.483 157.718 160.483C156.161 160.483 147.336 156.914 143.118 155.129L170.371 202.823C164.045 202.985 144.87 202.92 118.784 201.363C86.1775 199.416 38.9706 196.01 19.0171 186.276C-0.936341 176.543 -5.80304 157.563 9.7704 137.609C25.3438 117.656 56.4907 126.416 68.1708 130.796Z" fill="#33115B"/>
<path d="M34.5902 4.26177C33.6169 4.74844 34.5902 14.9685 35.0769 19.8352C35.0769 20.9708 35.1743 23.3393 35.5636 23.7286C36.0502 24.2153 42.8637 27.622 48.2171 28.5953C53.5705 29.5687 58.4372 30.0553 58.9239 27.622C59.4105 25.1886 57.4638 7.18179 56.0038 6.20845C54.5438 5.23511 35.5636 3.7751 34.5902 4.26177Z" fill="#0F0E12"/>
<path d="M34.9822 5.32823C34.0664 5.79765 34.9822 15.6555 35.4402 20.3497C35.4402 21.445 35.5318 23.7295 35.8981 24.1051C36.3559 24.5745 42.7671 27.8604 47.8044 28.7993C52.8416 29.7381 57.4209 30.2076 57.8788 27.8604C58.3367 25.5133 56.505 8.14475 55.1312 7.20591C53.7574 6.26707 35.8981 4.85881 34.9822 5.32823Z" fill="#3D3B42"/>
<path d="M30.2105 11.5617C32.9358 10.7831 35.8883 16.4284 37.0239 19.3485C37.1861 19.5107 38.2892 19.4458 41.4038 17.8884C45.2972 15.9418 56.9773 11.5617 57.9506 15.9418C58.7293 19.4458 49.1906 23.8907 44.3239 25.6752C50.6506 25.3507 63.4987 25.4805 64.2773 28.5952C65.056 31.7099 61.3573 33.1374 59.4106 33.4619C60.8707 33.2997 64.0827 33.8512 65.2507 37.3552C66.4187 40.8593 62.8173 41.7353 60.8707 41.7353C62.4929 42.2219 65.64 43.682 65.2507 45.6286C64.8613 47.5753 58.5995 48.3864 55.5173 48.5487C55.0306 49.0353 54.0573 50.2033 54.0573 50.982C54.0573 51.7607 52.1106 55.8487 51.1372 57.7954C54.2195 64.4466 61.0653 77.7489 63.7907 77.7489C66.516 77.7489 69.144 76.1266 70.1174 75.3155L92.5042 86.9956C89.5842 90.7267 81.0188 100.33 70.1174 108.896C56.4906 119.603 44.8106 109.869 33.1305 88.9423C21.4504 68.0155 19.9904 44.1686 27.2905 32.0019C34.5905 19.8351 26.8038 12.5351 30.2105 11.5617Z" fill="#F8DED8"/>
<path d="M58.9238 32.9756L45.7837 32.4889H42.377C42.5392 32.4889 44.2264 32.5862 49.6771 32.9756C53.1811 33.2928 58.2749 33.1077 58.9238 32.9756Z" fill="#0F0E12"/>
<path d="M59.8971 41.7354L46.757 41.2487H43.3503C43.5125 41.2487 45.1996 41.3461 50.6503 41.7354C54.1543 42.0526 59.2482 41.8676 59.8971 41.7354Z" fill="#0F0E12"/>
<path d="M83.2576 82.6156C78.5856 80.2796 71.2531 76.7756 68.1709 75.3156C77.742 69.3133 97.9551 56.7248 102.238 54.3887C106.52 52.0527 109.213 51.7932 110.025 51.9554C110.025 57.3088 110.025 64.9333 114.891 64.1222C121.899 62.9542 124.787 56.4976 125.598 52.9287C127.545 53.4154 133.677 55.1674 138.738 58.2821C143.799 61.3968 161.612 77.7489 169.885 85.5356L142.631 93.3224L175.725 136.636C148.471 150.263 97.8577 147.343 79.851 136.636C79.851 134.689 81.1163 131.477 82.2843 126.416C83.4523 121.355 89.2599 98.0268 92.0177 86.9956L83.2576 82.6156Z" fill="white"/>
<path d="M185.458 112.303C181.175 105.295 171.02 92.1869 166.478 86.5091L142.631 93.3225C147.011 99.487 155.771 112.205 155.771 113.763C155.771 115.709 149.445 118.143 141.171 120.576C132.898 123.009 117.811 122.523 111.484 124.469C105.158 126.416 87.6375 141.989 89.0975 145.396C90.2655 148.122 92.8286 148.478 93.9642 148.316C93.802 149.29 93.8669 151.626 95.4242 153.183C96.9816 154.74 100.291 153.832 101.751 153.183C101.264 153.994 100.875 155.908 103.211 157.076C105.547 158.244 108.726 156.59 110.024 155.616C110.024 156.752 110.998 159.023 114.891 159.023C118.784 159.023 126.895 153.183 130.464 150.263C135.331 152.372 150.515 154.059 172.318 143.936C199.572 131.283 190.811 121.063 185.458 112.303Z" fill="#F8DED8"/>
<path d="M107.812 136.032L97.5229 144.22L94.9376 146.438C95.0607 146.333 96.4044 145.308 100.794 142.054C103.66 140.013 107.405 136.555 107.812 136.032Z" fill="#0F0E12"/>
<path d="M115.598 141.872L105.31 150.06L102.724 152.278C102.847 152.173 104.191 151.148 108.581 147.894C111.447 145.853 115.192 142.395 115.598 141.872Z" fill="#0F0E12"/>
<path d="M120.918 146.771L113.361 152.614L111.484 154.225C111.574 154.148 112.567 153.424 115.823 151.143C117.961 149.727 120.647 147.178 120.918 146.771Z" fill="#0F0E12"/>
<path d="M110.511 62.1754C110.024 60.2287 110.024 48.5486 110.024 48.5486L125.598 38.8152V52.442C125.598 55.362 126.084 55.362 120.731 61.6887C116.448 66.7501 110.998 64.1221 110.511 62.1754Z" fill="#F8DED8"/>
<path d="M110.024 54.3888V50.0087V49.0354C110.511 49.0354 112.166 48.6461 114.891 47.0887C117.616 45.5314 123.327 41.8976 125.598 40.2753C124.462 41.8976 121.704 46.1154 119.271 48.5487C116.838 50.9821 112.295 53.5776 110.024 54.3888Z" fill="black"/>
<path d="M98.3441 40.2755C96.7868 31.3208 100.291 17.402 102.237 11.562C110.998 12.5353 128.518 15.066 128.518 17.402V26.6487C129.815 26.3243 132.411 26.4541 132.411 29.5687C132.411 32.6834 128.842 36.3821 127.058 37.8421C127.058 38.6533 125.5 41.3462 119.271 45.6289C111.484 50.9822 100.291 51.4689 98.3441 40.2755Z" fill="#F8DED8"/>
<path d="M112.944 22.2684C112.166 21.8791 111.322 21.7817 110.998 21.7817C111.322 21.2951 112.166 20.4191 112.944 20.8084C113.723 21.1977 114.242 22.5928 114.404 23.2417C114.242 23.0795 113.723 22.6577 112.944 22.2684Z" fill="#0F0E12"/>
<path d="M102.166 21.3134C103.022 21.1553 103.86 21.2957 104.171 21.3857C103.995 20.8282 103.427 19.7526 102.571 19.9107C101.715 20.0688 100.829 21.2652 100.493 21.8436C100.694 21.7328 101.31 21.4715 102.166 21.3134Z" fill="#0F0E12"/>
<ellipse rx="0.97334" ry="1.46001" transform="matrix(0.982908 0.184098 -0.184102 0.982907 110.511 28.1086)" fill="#0F0E12"/>
<ellipse rx="0.97334" ry="1.46001" transform="matrix(0.969326 0.245778 -0.245775 0.969327 102.003 27.2896)" fill="#0F0E12"/>
<path d="M106.618 21.2953C105.807 24.3775 104.087 30.7367 103.698 31.5154C103.308 32.294 104.509 33.7865 105.158 34.4354" stroke="#0F0E12"/>
<path d="M106.131 37.8421C106.455 37.8421 107.299 37.7447 108.078 37.3554C108.856 36.9661 109.376 36.2198 109.538 35.8954" stroke="#0F0E12"/>
<path d="M132.411 13.9952C132.411 9.32312 127.869 8.15512 125.598 8.15512C125.274 5.88401 123.457 1.24444 118.785 0.855064C114.113 0.465685 110.998 2.63954 110.511 3.77514C110.349 3.28845 109.635 2.02307 108.078 0.855064C106.131 -0.604946 92.0177 -1.57829 95.4244 10.1018C98.1497 19.4459 104.996 16.5907 108.078 13.9952C108.078 15.1307 109.051 17.4019 112.944 17.4019C116.838 17.4019 118.136 15.4552 118.298 14.4818C118.622 15.1307 119.563 16.6232 120.731 17.4019C121.899 18.1805 123.813 17.7263 124.625 17.4019C125.111 18.0507 126.279 19.5432 127.058 20.3219C128.031 21.2952 132.411 19.8352 132.411 13.9952Z" fill="#0F0E12"/>
<path d="M129.034 29.2296C128.493 30.2793 127.372 32.5697 127.219 33.3332C127.067 34.0968 127.665 34.415 127.983 34.4787" stroke="#0F0E12"/>
<circle cx="37.9972" cy="8.64196" r="1.46001" fill="#0F0E12"/>
</svg>
