<svg width="16" height="16" viewBox="0 0 16 16" fill="none" xmlns="http://www.w3.org/2000/svg">
<path d="M11 0H5C2.239 0 0 2.239 0 5V11C0 13.761 2.239 16 5 16H11C13.761 16 16 13.761 16 11V5C16 2.239 13.761 0 11 0ZM14.5 11C14.5 12.93 12.93 14.5 11 14.5H5C3.07 14.5 1.5 12.93 1.5 11V5C1.5 3.07 3.07 1.5 5 1.5H11C12.93 1.5 14.5 3.07 14.5 5V11Z" fill="url(#paint0_linear_227_3207)"/>
<path d="M8.00006 4C5.79106 4 4.00006 5.791 4.00006 8C4.00006 10.209 5.79106 12 8.00006 12C10.2091 12 12.0001 10.209 12.0001 8C12.0001 5.791 10.2091 4 8.00006 4ZM8.00006 10.5C6.62206 10.5 5.50006 9.378 5.50006 8C5.50006 6.621 6.62206 5.5 8.00006 5.5C9.37806 5.5 10.5001 6.621 10.5001 8C10.5001 9.378 9.37806 10.5 8.00006 10.5Z" fill="url(#paint1_linear_227_3207)"/>
<path d="M12.3 4.23299C12.5944 4.23299 12.833 3.99436 12.833 3.69999C12.833 3.40562 12.5944 3.16699 12.3 3.16699C12.0057 3.16699 11.767 3.40562 11.767 3.69999C11.767 3.99436 12.0057 4.23299 12.3 4.23299Z" fill="url(#paint2_linear_227_3207)"/>
<defs>
<linearGradient id="paint0_linear_227_3207" x1="8" y1="0" x2="8" y2="16" gradientUnits="userSpaceOnUse">
<stop stop-color="#7043BE"/>
<stop offset="1" stop-color="#E9634D"/>
</linearGradient>
<linearGradient id="paint1_linear_227_3207" x1="8.00006" y1="4" x2="8.00006" y2="12" gradientUnits="userSpaceOnUse">
<stop stop-color="#7043BE"/>
<stop offset="1" stop-color="#E9634D"/>
</linearGradient>
<linearGradient id="paint2_linear_227_3207" x1="12.3" y1="3.16699" x2="12.3" y2="4.23299" gradientUnits="userSpaceOnUse">
<stop stop-color="#7043BE"/>
<stop offset="1" stop-color="#E9634D"/>
</linearGradient>
</defs>
</svg>
