<svg width="15" height="16" viewBox="0 0 15 16" fill="none" xmlns="http://www.w3.org/2000/svg">
<g clip-path="url(#clip0_227_3212)">
<path d="M13.2064 1H1.0127C0.453968 1 0 1.45313 0 2.00938V13.9906C0 14.5469 0.453968 15 1.0127 15H13.2064C13.7651 15 14.2222 14.5469 14.2222 13.9906V2.00938C14.2222 1.45313 13.7651 1 13.2064 1ZM4.29841 13H2.19048V6.31875H4.30159V13H4.29841ZM3.24444 5.40625C2.56825 5.40625 2.02222 4.86562 2.02222 4.20312C2.02222 3.54063 2.56825 3 3.24444 3C3.91746 3 4.46667 3.54063 4.46667 4.20312C4.46667 4.86875 3.92063 5.40625 3.24444 5.40625ZM12.2 13H10.0921V9.75C10.0921 8.975 10.0762 7.97813 8.99683 7.97813C7.89841 7.97813 7.73016 8.82188 7.73016 9.69375V13H5.62222V6.31875H7.64444V7.23125H7.67302C7.95556 6.70625 8.64445 6.15312 9.66984 6.15312C11.8032 6.15312 12.2 7.5375 12.2 9.3375V13Z" fill="#0A63BC"/>
</g>
<defs>
<clipPath id="clip0_227_3212">
<rect width="14.2222" height="16" fill="white"/>
</clipPath>
</defs>
</svg>
