<svg id="qr-one" data-name="Layer 1" xmlns="http://www.w3.org/2000/svg" width="300" height="300" viewBox="0 0 300 300">
  <g>
    <g>
      <path d="M224.88,93.12h19.39a5,5,0,0,1,5,5v18.73H254V98.12a9.68,9.68,0,0,0-9.68-9.68H224.88Z"/>
      <path d="M50.73,116.85V98.12a5,5,0,0,1,5-5H73.8V88.44H55.73a9.68,9.68,0,0,0-9.68,9.68v18.73Z"/>
      <path d="M73.8,291.67H55.73a5,5,0,0,1-5-5V267.94H46.05v18.73a9.68,9.68,0,0,0,9.68,9.68H73.8Z"/>
      <path d="M249.27,267.94v18.73a5,5,0,0,1-5,5H224.88v4.68h19.39a9.68,9.68,0,0,0,9.68-9.68V267.94Z"/>
    </g>
    <g>
      <polygon points="123.41 39.06 134.42 39.06 128.88 23.89 123.41 39.06"/>
      <path d="M244.75,3.65H55.45A9.25,9.25,0,0,0,46.2,12.9V54.46a9.25,9.25,0,0,0,9.25,9.26H126a2.32,2.32,0,0,1,1.64.67l20.74,20.74a2.33,2.33,0,0,0,3.28,0l20.75-20.74a2.28,2.28,0,0,1,1.64-.67h70.58a9.25,9.25,0,0,0,9.25-9.26V12.9A9.18,9.18,0,0,0,244.75,3.65Zm-154,42c-1.43.9-3.19,1.16-8.28,1.16-3.48,0-4.64-.19-6.11-1a4.67,4.67,0,0,1-2-3A18.65,18.65,0,0,1,74,38.87h2.81c0,2.7.08,3.19.57,4.09.67,1.27,1.49,1.46,6,1.46,6,0,6.67-.53,6.67-5.17,0-2.1-.42-3.07-1.54-3.52-.71-.3-.71-.3-5.28-.57s-5-.29-6.22-.86c-2-1-2.85-2.69-2.85-5.84,0-2.92.6-4.68,1.88-5.66s3.22-1.46,7.49-1.46c4.72,0,6.63.49,7.79,2.06.79,1.05,1.08,2.33,1.08,4.57v.42h-2.8c0-1.84-.12-2.55-.53-3.23-.67-1.08-1.83-1.38-5.2-1.38-3.9,0-5.21.22-6,1.12a4.83,4.83,0,0,0-.9,3.3c0,2.25.53,3.37,1.8,3.86.83.3,1,.33,5.17.52,4.61.23,6,.49,7.12,1.39,1.31,1,1.79,2.54,1.79,5.54C92.81,42.92,92.22,44.72,90.72,45.69Zm24.15-.79c-1,1.28-2.73,1.8-6,1.91-.94,0-2.44,0-3.75,0-3.52,0-4.94-.3-6.52-1.35a6.27,6.27,0,0,1-2.32-4.23,60,60,0,0,1-.41-7.15c0-5.47,0-6,.26-7.42a6,6,0,0,1,5.06-5,34.45,34.45,0,0,1,6.4-.38c3.15,0,4.31.19,5.58.9a4.9,4.9,0,0,1,2.36,4c.08.79.12,1.28.19,3H113c0-2.66-.15-3.41-.6-4.2-.63-1-1.72-1.31-4.79-1.31-3.48,0-5.73.19-6.63.56-1.57.71-2.06,2.06-2.06,5.92,0,14.08,0,14.2,6.93,14.2,6.74,0,7.49-.49,7.49-4.76V38.24h2.77C116.07,42.69,115.92,43.59,114.87,44.9Zm22.32,1.69-1.95-5.28H122.62l-1.91,5.28h-3l9.13-25h4l9.33,25Zm26.82,0H159.4l-10.49-17-1.68-2.81-.86-1.38L145.54,24h-.07l0,.94V46.59h-2.81v-25h4.61l9.1,14.9,2.4,3.9,1.2,2,1.16,1.94h.07l0-.93V21.61H164Zm41.49,0h-2.81V24.34l0-.75h-.07c-.12.38-.23.64-.34.94s-.19.41-.56,1.38l-8.51,20.68h-2.84l-8.5-20.41L181.42,25l-.23-.6-.22-.56h-.08l0,.68V46.59h-2.81v-25H183l6.67,16.18,1.05,2.58.52,1.31.53,1.31h.07l.53-1.31.52-1.31,1.05-2.58,6.63-16.18h4.94ZM226.29,24H213.06v8.47h12.66v2.36H213.06v9.28h13.23v2.44h-16v-25h16Z"/>
    </g>
  </g>
</svg>
